<svg width="40" height="40" viewBox="0 0 40 40" fill="none" xmlns="http://www.w3.org/2000/svg">
<circle cx="20" cy="20" r="20" fill="#FFF7DA"/>
<g clip-path="url(#clip0_92_3908)">
<path d="M11.4284 8.5218C10.9357 8.12144 10.1991 8.47211 10.1991 9.10689V19.2086L18.4922 14.3082L11.4284 8.5218Z" fill="#FFC850"/>
<path d="M10.1991 18.2861L14.7226 14.6107L10.1991 9.51562V18.2861Z" fill="#EBAF4B"/>
<path d="M28.5717 8.5218C29.0644 8.12144 29.801 8.47211 29.801 9.10689V19.2086L21.5079 14.3082L28.5717 8.5218Z" fill="#FFC850"/>
<path d="M29.8011 18.2861L25.2776 14.6107L29.8011 9.51562V18.2861Z" fill="#EBAF4B"/>
<path d="M20 31.6479C25.8292 31.6479 30.5547 27.1754 30.5547 21.6584C30.5547 16.1414 25.8292 11.6689 20 11.6689C14.1707 11.6689 9.44519 16.1414 9.44519 21.6584C9.44519 27.1754 14.1707 31.6479 20 31.6479Z" fill="#FFDC64"/>
<path d="M21.5079 27.8789V28.6329C21.5079 29.4656 20.8329 30.1407 20.0001 30.1407C19.1674 30.1407 18.4923 29.4656 18.4923 28.6329V27.8789L20.0001 27.125L21.5079 27.8789Z" fill="#FF8087"/>
<path d="M20.8325 23.998H19.1677C18.8083 23.998 18.6092 24.4147 18.8352 24.6942L19.6677 25.7241C19.8387 25.9358 20.1614 25.9358 20.3326 25.7241L21.165 24.6942C21.391 24.4147 21.192 23.998 20.8325 23.998Z" fill="#5D5360"/>
<path d="M22.6387 30.8941C16.8095 30.8941 12.0839 26.4217 12.0839 20.9048C12.0839 16.8535 14.6335 13.3682 18.2956 11.8008C13.2771 12.5722 9.44519 16.691 9.44519 21.6587C9.44519 27.1757 14.1708 31.648 20 31.648C21.5487 31.648 23.018 31.3297 24.343 30.7626C23.788 30.848 23.2192 30.8941 22.6387 30.8941Z" fill="#FFC850"/>
<path d="M15.665 22.9785C14.9394 22.9785 14.3457 22.3848 14.3457 21.6592V20.9053C14.3457 20.1797 14.9394 19.5859 15.665 19.5859C16.3907 19.5859 16.9844 20.1797 16.9844 20.9053V21.6592C16.9844 22.3848 16.3907 22.9785 15.665 22.9785Z" fill="#4B3F4E"/>
<path d="M15.665 19.5859C15.6005 19.5859 15.5387 19.596 15.4766 19.6051V21.4707C15.4766 21.8871 15.8141 22.2247 16.2305 22.2247C16.6469 22.2247 16.9844 21.8871 16.9844 21.4707V20.9053C16.9844 20.1797 16.3907 19.5859 15.665 19.5859Z" fill="#5D5360"/>
<path d="M15.665 21.0935C15.9773 21.0935 16.2303 20.8404 16.2303 20.5282C16.2303 20.216 15.9773 19.9629 15.665 19.9629C15.3528 19.9629 15.0997 20.216 15.0997 20.5282C15.0997 20.8404 15.3528 21.0935 15.665 21.0935Z" fill="white"/>
<path d="M24.3351 22.9785C23.6094 22.9785 23.0157 22.3848 23.0157 21.6592V20.9053C23.0157 20.1797 23.6095 19.5859 24.3351 19.5859C25.0607 19.5859 25.6544 20.1797 25.6544 20.9053V21.6592C25.6545 22.3848 25.0607 22.9785 24.3351 22.9785Z" fill="#4B3F4E"/>
<path d="M24.3351 19.5859C24.2706 19.5859 24.2087 19.596 24.1466 19.6051V21.4707C24.1466 21.8871 24.4842 22.2247 24.9005 22.2247C25.3169 22.2247 25.6545 21.8871 25.6545 21.4707V20.9053C25.6545 20.1797 25.0608 19.5859 24.3351 19.5859Z" fill="#5D5360"/>
<path d="M24.335 21.0935C24.6472 21.0935 24.9003 20.8404 24.9003 20.5282C24.9003 20.216 24.6472 19.9629 24.335 19.9629C24.0228 19.9629 23.7697 20.216 23.7697 20.5282C23.7697 20.8404 24.0228 21.0935 24.335 21.0935Z" fill="white"/>
<path d="M20.2918 25.7402L19.4594 24.0924C19.4443 24.0625 19.4358 24.0297 19.4244 23.998H19.1678C18.8084 23.998 18.6094 24.4147 18.8353 24.6942L19.6677 25.7241C19.8293 25.9238 20.1219 25.9282 20.2985 25.7508C20.2965 25.7469 20.2938 25.7442 20.2918 25.7402Z" fill="#4B3F4E"/>
<path d="M18.4922 27.8789V28.6329C18.4922 28.7525 18.5096 28.8674 18.5359 28.9789C19.0587 28.9141 19.5587 28.7335 20.0001 28.4378C20.4414 28.7335 20.9414 28.9141 21.4642 28.9789C21.4905 28.8674 21.5079 28.7525 21.5079 28.6329V27.8789L20 27.125L18.4922 27.8789Z" fill="#E6646E"/>
<path d="M17.3359 21.6592V20.9053C17.3359 20.6547 17.2817 20.4136 17.1748 20.1887C17.0915 20.0133 16.8818 19.9387 16.7064 20.0221C16.531 20.1054 16.4564 20.3151 16.5398 20.4905C16.6015 20.6204 16.6328 20.76 16.6328 20.9053V21.6592C16.6328 22.1928 16.1987 22.627 15.665 22.627C15.1314 22.627 14.6973 22.1928 14.6973 21.6592V20.9053C14.6973 20.3716 15.1314 19.9375 15.665 19.9375C15.8592 19.9375 16.0166 19.7801 16.0166 19.5859C16.0166 19.3918 15.8592 19.2344 15.665 19.2344C14.7437 19.2344 13.9941 19.9839 13.9941 20.9053V21.6592C13.9941 22.5806 14.7437 23.3301 15.665 23.3301C16.5863 23.3301 17.3359 22.5806 17.3359 21.6592Z" fill="black"/>
<path d="M26.0061 21.6592V20.9053C26.0061 20.6547 25.9519 20.4136 25.845 20.1887C25.7616 20.0133 25.5519 19.9386 25.3766 20.0221C25.2012 20.1054 25.1266 20.3151 25.2099 20.4905C25.2717 20.6204 25.303 20.76 25.303 20.9053V21.6592C25.303 22.1928 24.8688 22.627 24.3352 22.627C23.8016 22.627 23.3674 22.1928 23.3674 21.6592V20.9053C23.3674 20.3716 23.8016 19.9375 24.3352 19.9375C24.5294 19.9375 24.6868 19.7801 24.6868 19.5859C24.6868 19.3918 24.5294 19.2344 24.3352 19.2344C23.4138 19.2344 22.6643 19.9839 22.6643 20.9053V21.6592C22.6643 22.5806 23.4139 23.3301 24.3352 23.3301C25.2565 23.3301 26.0061 22.5806 26.0061 21.6592Z" fill="black"/>
<path d="M23.1579 27.0374C22.806 27.353 22.3539 27.5268 21.8848 27.5268C21.499 27.5268 21.1274 27.4123 20.8101 27.1955C20.3256 26.8645 19.6746 26.8645 19.19 27.1955C18.8727 27.4123 18.5011 27.5268 18.1153 27.5268C17.6462 27.5268 17.1941 27.353 16.8422 27.0374C16.6976 26.9077 16.4754 26.9198 16.3457 27.0644C16.2161 27.2089 16.2282 27.4312 16.3727 27.5608C16.8538 27.9923 17.4727 28.2299 18.1153 28.2299C18.1238 28.2299 18.1322 28.2296 18.1407 28.2295V28.6323C18.1407 29.6576 18.9748 30.4917 20.0001 30.4917C21.0253 30.4917 21.8594 29.6576 21.8594 28.6323V28.2295C21.8679 28.2296 21.8763 28.2299 21.8848 28.2299C22.5274 28.2299 23.1462 27.9923 23.6274 27.5608C23.772 27.4312 23.784 27.2089 23.6544 27.0644C23.5247 26.9198 23.3025 26.9077 23.1579 27.0374ZM21.1564 28.6323C21.1564 29.2699 20.6376 29.7886 20.0001 29.7886C19.3626 29.7886 18.8438 29.2699 18.8438 28.6323V28.1265C19.1067 28.0503 19.3571 27.9329 19.5867 27.7761C19.6066 27.7624 19.6274 27.7503 19.6485 27.7389V28.2554C19.6485 28.4495 19.8059 28.6069 20.0001 28.6069C20.1943 28.6069 20.3517 28.4495 20.3517 28.2554V27.7389C20.3728 27.7503 20.3936 27.7624 20.4135 27.7761C20.6431 27.9329 20.8935 28.0503 21.1564 28.1265V28.6323Z" fill="black"/>
<path d="M19.3944 25.9451C19.543 26.129 19.7638 26.2344 20.0002 26.2344C20.2366 26.2344 20.4574 26.129 20.6061 25.9451L21.4385 24.9152C21.629 24.6796 21.6662 24.3633 21.5356 24.0898C21.405 23.8164 21.1357 23.6465 20.8326 23.6465H19.1678C18.8648 23.6465 18.5954 23.8164 18.4648 24.0898C18.3342 24.3633 18.3714 24.6796 18.5619 24.9152L19.3944 25.9451ZM19.0992 24.3928C19.1129 24.3641 19.136 24.3496 19.1678 24.3496H20.8326C20.8643 24.3496 20.8874 24.3641 20.9011 24.3928C20.9148 24.4215 20.9116 24.4486 20.8916 24.4732L20.0592 25.503C20.0403 25.5264 20.0167 25.5313 20.0001 25.5313C19.9836 25.5313 19.9599 25.5264 19.9411 25.5031L19.1086 24.4732C19.0887 24.4486 19.0856 24.4215 19.0992 24.3928Z" fill="black"/>
<path d="M31.023 24.9006C30.8296 24.8486 30.6237 24.8021 30.4093 24.7603C30.7362 23.7696 30.9063 22.7268 30.9063 21.659C30.9063 20.3397 30.6471 19.0585 30.1524 17.8669V9.10704C30.1524 8.6764 29.9109 8.2939 29.522 8.10884C29.1332 7.92378 28.6841 7.9775 28.3498 8.24904L23.7869 11.9564C22.5907 11.5373 21.3131 11.318 19.9999 11.318C18.6867 11.318 17.4092 11.5373 16.2129 11.9564L11.6501 8.24904C11.3159 7.9775 10.8667 7.92373 10.4779 8.10884C10.0891 8.2939 9.84754 8.6764 9.84754 9.10704V17.867C9.35292 19.0585 9.09361 20.3397 9.09361 21.659C9.09361 22.7268 9.26381 23.7697 9.59066 24.7603C9.37621 24.8021 9.17034 24.8486 8.97694 24.9006C8.78944 24.951 8.6783 25.1438 8.72869 25.3313C8.77087 25.4883 8.91286 25.5917 9.06797 25.5917C9.09815 25.5917 9.1289 25.5878 9.15947 25.5796C9.37031 25.5229 9.59849 25.4731 9.83826 25.4291C10.0748 26.0028 10.3663 26.5555 10.7095 27.082C10.345 27.233 9.99097 27.3947 9.65995 27.5669C9.48768 27.6565 9.42065 27.8687 9.51023 28.041C9.57285 28.1614 9.69543 28.2304 9.82241 28.2304C9.87702 28.2304 9.93247 28.2177 9.98432 28.1907C10.3394 28.0061 10.7256 27.8332 11.1249 27.6727C11.4733 28.1329 11.8636 28.5697 12.2949 28.9779C14.354 30.9268 17.0904 32 19.9999 32C22.9095 32 25.6459 30.9268 27.7049 28.9779C28.1363 28.5697 28.5266 28.1329 28.8751 27.6726C29.2742 27.8331 29.6605 28.0061 30.0156 28.1907C30.0674 28.2177 30.1228 28.2304 30.1775 28.2304C30.3045 28.2304 30.427 28.1614 30.4897 28.041C30.5793 27.8687 30.5123 27.6565 30.34 27.5669C30.009 27.3948 29.655 27.233 29.2904 27.082C29.6337 26.5556 29.9252 26.0028 30.1617 25.4291C30.4014 25.4731 30.6296 25.523 30.8404 25.5796C30.871 25.5878 30.9017 25.5918 30.9319 25.5918C31.087 25.5918 31.229 25.4883 31.2712 25.3314C31.3217 25.1438 31.2105 24.951 31.023 24.9006ZM28.7933 8.79476C28.9167 8.69445 29.0763 8.67532 29.2199 8.74376C29.3626 8.81163 29.4479 8.94612 29.4491 9.10376L28.7697 9.86969C28.6409 10.015 28.6542 10.2371 28.7995 10.366C28.8664 10.4254 28.9497 10.4545 29.0326 10.4545C29.1297 10.4545 29.2263 10.4146 29.2958 10.3363L29.4494 10.1631V16.4875C28.9756 15.7121 28.392 14.9902 27.7051 14.3401C27.3475 14.0017 26.969 13.6903 26.5732 13.4057L28.2992 11.4598C28.428 11.3146 28.4147 11.0924 28.2695 10.9635C28.1242 10.8347 27.902 10.848 27.7731 10.9932L25.984 13.0102C25.5219 12.7216 25.0391 12.4681 24.5394 12.2511L28.7933 8.79476ZM10.7801 8.74371C10.9238 8.67532 11.0832 8.69445 11.2067 8.79471L15.4606 12.2511C14.9609 12.4681 14.478 12.7215 14.016 13.0102L10.5508 9.10371C10.5521 8.94607 10.6374 8.81159 10.7801 8.74371ZM10.5507 10.1631L13.4268 13.4056C13.031 13.6903 12.6526 14.0016 12.295 14.3401C11.6081 14.9902 11.0245 15.7121 10.5507 16.4875V10.1631ZM28.6148 26.8179C26.5417 26.0516 24.3774 25.6245 24.2609 25.6018C24.0703 25.5647 23.8857 25.6891 23.8486 25.8797C23.8114 26.0703 23.9358 26.2549 24.1264 26.292C24.1535 26.2972 26.1989 26.7007 28.1825 27.4103C26.3207 29.7676 23.3459 31.2968 20 31.2968C16.6541 31.2968 13.6794 29.7676 11.8175 27.4104C13.8006 26.7011 15.8465 26.2972 15.8736 26.2919C16.0641 26.2548 16.1885 26.0702 16.1513 25.8796C16.1142 25.6891 15.9297 25.5648 15.7391 25.6018C15.6226 25.6245 13.4582 26.0516 11.3852 26.8179C11.0661 26.3441 10.7899 25.8423 10.561 25.3175C12.6362 25.0494 15.1286 25.1193 15.1596 25.1203C15.3539 25.1274 15.5157 24.9735 15.5216 24.7795C15.5274 24.5854 15.3749 24.4233 15.1807 24.4175C15.048 24.4135 12.4503 24.3405 10.2979 24.643C9.97302 23.703 9.79668 22.7002 9.79668 21.659C9.79668 16.3447 14.3738 12.0212 19.9999 12.0212C25.626 12.0212 30.2032 16.3447 30.2032 21.659C30.2032 22.7002 30.0268 23.703 29.702 24.643C27.5496 24.3405 24.9518 24.4136 24.8192 24.4176C24.6251 24.4234 24.4725 24.5855 24.4783 24.7795C24.4842 24.9736 24.6458 25.1257 24.8403 25.1203C24.8713 25.1194 27.3637 25.0494 29.4389 25.3176C29.2101 25.8423 28.9339 26.3441 28.6148 26.8179Z" fill="black"/>
</g>
<defs>
<clipPath id="clip0_92_3908">
<rect width="24" height="24" fill="white" transform="translate(8 8)"/>
</clipPath>
</defs>
</svg>
