<svg width="40" height="40" viewBox="0 0 40 40" fill="none" xmlns="http://www.w3.org/2000/svg">
<circle cx="20" cy="20" r="20" fill="#FFF3DF"/>
<g clip-path="url(#clip0_92_3881)">
<path d="M28.2638 11.4215H24.5076C23.146 11.9615 22.8441 11.0459 20.0001 11.0459C17.1561 11.0459 16.8543 11.9615 15.4927 11.4215H11.7365L11.2357 20.8589C11.5487 24.5681 13.8494 26.5871 15.6649 27.3226H24.3354C26.1509 26.5871 28.4515 24.5681 28.7645 20.8589L28.2638 11.4215Z" fill="#F5DCB4"/>
<path d="M24.5073 11.4222C28.7366 12.6881 26.4342 19.2163 29.1574 22.0381C29.5484 22.4432 30.2391 22.2632 30.4022 21.7245C30.6178 21.0126 30.8332 19.8863 30.7989 18.2772C30.7519 16.0704 31.644 15.9295 31.644 15.9295C31.644 15.9295 30.5172 10.6709 27.1366 10.6709C26.0098 10.6709 24.5073 11.4222 24.5073 11.4222Z" fill="#965A50"/>
<path d="M16.0561 21.1881C15.3331 21.1881 14.7415 20.5966 14.7415 19.8735V19.1223C14.7415 18.3992 15.333 17.8076 16.0561 17.8076C16.7792 17.8076 17.3708 18.3992 17.3708 19.1223V19.8735C17.3708 20.5965 16.7792 21.1881 16.0561 21.1881Z" fill="#4B3F4E"/>
<path d="M16.056 17.8076C15.9917 17.8076 15.93 17.8176 15.8682 17.8267V19.6857C15.8682 20.1006 16.2045 20.4369 16.6194 20.4369C17.0343 20.4369 17.3706 20.1006 17.3706 19.6857V19.1223C17.3706 18.3992 16.7791 17.8076 16.056 17.8076Z" fill="#5D5360"/>
<path d="M16.0562 19.3101C16.3672 19.3101 16.6194 19.0579 16.6194 18.7468C16.6194 18.4358 16.3672 18.1836 16.0562 18.1836C15.7451 18.1836 15.4929 18.4358 15.4929 18.7468C15.4929 19.0579 15.7451 19.3101 16.0562 19.3101Z" fill="white"/>
<path d="M23.9442 21.1881C23.2211 21.1881 22.6295 20.5966 22.6295 19.8735V19.1223C22.6295 18.3992 23.2211 17.8076 23.9442 17.8076C24.6672 17.8076 25.2588 18.3992 25.2588 19.1223V19.8735C25.2588 20.5965 24.6672 21.1881 23.9442 21.1881Z" fill="#4B3F4E"/>
<path d="M23.9442 17.8076C23.8799 17.8076 23.8182 17.8176 23.7563 17.8267V19.6857C23.7563 20.1006 24.0927 20.4369 24.5076 20.4369C24.9225 20.4369 25.2588 20.1006 25.2588 19.6857V19.1223C25.2588 18.3992 24.6672 17.8076 23.9442 17.8076Z" fill="#5D5360"/>
<path d="M23.9437 19.3101C24.2548 19.3101 24.507 19.0579 24.507 18.7468C24.507 18.4358 24.2548 18.1836 23.9437 18.1836C23.6327 18.1836 23.3805 18.4358 23.3805 18.7468C23.3805 19.0579 23.6327 19.3101 23.9437 19.3101Z" fill="white"/>
<path d="M29.1573 22.0377C29.5483 22.4428 30.2391 22.2628 30.4022 21.724C30.5259 21.3157 30.6478 20.7661 30.7242 20.0723C29.9858 19.7043 29.3554 18.5299 28.9677 16.5395C28.2634 12.9242 27.2774 10.9053 24.5072 11.4217C28.7365 12.6876 26.4341 19.2158 29.1573 22.0377Z" fill="#824641"/>
<path d="M15.6649 27.323H17.4452C17.4452 27.323 14.3189 25.2258 13.8025 21.5166C12.7977 14.3008 14.7102 12.1418 16.3644 11.5909C16.1023 11.5997 15.8301 11.5557 15.4928 11.4219H11.7365L11.2357 20.8593C11.5487 24.5685 13.8494 26.5874 15.6649 27.323Z" fill="#E7C9A5"/>
<path d="M15.4928 11.4222C11.2635 12.6881 13.5659 19.2163 10.8427 22.0381C10.4517 22.4432 9.76097 22.2632 9.59784 21.7245C9.38227 21.0126 9.16692 19.8863 9.20119 18.2772C9.24816 16.0704 8.35608 15.9295 8.35608 15.9295C8.35608 15.9295 9.48286 10.6709 12.8634 10.6709C13.9903 10.6709 15.4928 11.4222 15.4928 11.4222Z" fill="#965A50"/>
<path d="M15.367 11.3624C14.9859 11.1855 13.797 10.6709 12.8634 10.6709C9.48283 10.6709 8.35596 15.9296 8.35596 15.9296C8.35596 15.9296 9.24804 16.0704 9.20107 18.2772C9.20046 18.3067 9.2013 18.3332 9.20083 18.3623C11.3624 10.162 14.6838 11.0744 15.367 11.3624Z" fill="#824641"/>
<path d="M19.9997 30.5783C22.2817 30.5783 24.1317 29.2329 24.1317 27.5733C24.1317 25.9137 22.2817 24.5684 19.9997 24.5684C17.7177 24.5684 15.8678 25.9137 15.8678 27.5733C15.8678 29.2329 17.7177 30.5783 19.9997 30.5783Z" fill="#BC8E78"/>
<path d="M18.1218 27.5732V29.4513C18.1218 30.4886 18.9626 31.3294 19.9999 31.3294C21.0372 31.3294 21.878 30.4886 21.878 29.4513V27.5732H18.1218Z" fill="#FF8087"/>
<path d="M18.1218 29.4171C18.8091 29.3386 19.456 29.1194 19.9999 28.7742C20.5438 29.1194 21.1908 29.3386 21.878 29.4171V27.5732H18.1218V29.4171Z" fill="#E6646E"/>
<path d="M22.4416 24.1924H17.5586C16.0027 24.1924 14.7415 25.1173 14.7415 26.2583C14.7415 27.3992 16.0027 28.3242 17.5586 28.3242C18.3421 28.3242 19.0496 28.0891 19.5597 27.7103C19.6889 27.6144 19.8446 27.5664 20 27.5664C20.1558 27.5664 20.3115 27.6144 20.4406 27.7103C20.9506 28.0891 21.6582 28.3242 22.4417 28.3242C23.9975 28.3242 25.2588 27.3993 25.2588 26.2583C25.2588 25.1173 23.9975 24.1924 22.4416 24.1924Z" fill="#D4AF91"/>
<path d="M20.0001 22.6904C21.2448 22.6904 22.2538 23.3631 22.2538 24.1929C22.2538 24.9932 21.3066 25.4145 20.6231 25.7261C20.2269 25.9067 19.7734 25.9067 19.3772 25.7261C18.6936 25.4145 17.7465 24.9932 17.7465 24.1929C17.7464 23.3631 18.7554 22.6904 20.0001 22.6904Z" fill="#5D5360"/>
<path d="M18.8615 23.7819C18.8089 23.3092 19.142 22.8037 19.142 22.8037C18.323 23.0288 17.7463 23.5657 17.7463 24.1928C17.7463 24.9931 18.6935 25.4144 19.3771 25.726C19.7733 25.9066 20.2267 25.9066 20.623 25.726C20.77 25.659 20.9292 25.5864 21.0885 25.5066C20.1644 25.3431 18.9672 24.7328 18.8615 23.7819Z" fill="#4B3F4E"/>
<path d="M24.981 18.241C24.8057 18.3243 24.7311 18.534 24.8144 18.7093C24.8759 18.8386 24.907 18.9775 24.907 19.1221V19.8734C24.907 20.4045 24.4749 20.8366 23.9438 20.8366C23.4127 20.8366 22.9806 20.4044 22.9806 19.8734V19.1221C22.9806 18.591 23.4127 18.1589 23.9438 18.1589C24.1379 18.1589 24.2953 18.0015 24.2953 17.8075C24.2953 17.6134 24.1379 17.4561 23.9438 17.4561C23.0251 17.4561 22.2777 18.2035 22.2777 19.1222V19.8734C22.2777 20.7921 23.0251 21.5395 23.9438 21.5395C24.8625 21.5395 25.6099 20.7921 25.6099 19.8734V19.1222C25.6099 18.8723 25.5558 18.632 25.4493 18.4077C25.3659 18.2323 25.1563 18.1578 24.981 18.241Z" fill="black"/>
<path d="M17.0933 18.241C16.918 18.3243 16.8434 18.534 16.9267 18.7093C16.9882 18.8386 17.0193 18.9775 17.0193 19.1221V19.8734C17.0193 20.4045 16.5872 20.8366 16.0561 20.8366C15.525 20.8366 15.0929 20.4044 15.0929 19.8734V19.1221C15.0929 18.591 15.525 18.1589 16.0561 18.1589C16.2502 18.1589 16.4075 18.0015 16.4075 17.8075C16.4075 17.6134 16.2502 17.4561 16.0561 17.4561C15.1374 17.4561 14.39 18.2035 14.39 19.1222V19.8734C14.39 20.7921 15.1374 21.5395 16.0561 21.5395C16.9748 21.5395 17.7222 20.7921 17.7222 19.8734V19.1222C17.7222 18.8723 17.6681 18.632 17.5616 18.4077C17.4783 18.2323 17.2687 18.1578 17.0933 18.241Z" fill="black"/>
<path d="M31.9878 15.8558C31.9759 15.8001 31.6874 14.4771 30.968 13.1341C29.9815 11.2926 28.6567 10.3193 27.1368 10.3193C25.9918 10.3193 24.5454 11.0119 24.3674 11.0993C23.7732 11.3322 23.435 11.2414 22.8245 11.0767C22.2271 10.9156 21.4089 10.695 20 10.695C18.5911 10.695 17.7729 10.9156 17.1755 11.0767C16.5651 11.2414 16.2269 11.3322 15.6327 11.0993C15.4547 11.0119 14.0082 10.3193 12.8633 10.3193C11.3434 10.3193 10.0186 11.2926 9.03207 13.1341C8.31263 14.4771 8.02416 15.8001 8.01221 15.8558C7.99041 15.9575 7.99346 16.0615 8.05744 16.1436C8.11913 16.2226 8.19165 16.2695 8.2899 16.276C8.36504 16.3083 8.88526 16.5935 8.84963 18.2696C8.81349 19.9664 9.05354 21.1402 9.26133 21.8262C9.37585 22.2043 9.67515 22.4858 10.0619 22.5791C10.1494 22.6002 10.2372 22.6105 10.3239 22.6105C10.6131 22.6105 10.8893 22.4955 11.0954 22.282C11.1083 22.2686 11.1206 22.2546 11.1333 22.2411C11.615 24.5331 13.1522 26.3711 14.5853 27.1032C14.7481 27.4402 15.0094 27.7469 15.3587 28.0031C15.4487 28.0691 15.5436 28.13 15.6419 28.1869C15.9492 29.0618 16.7488 30.1368 18.0993 30.6154C18.4919 31.2542 19.197 31.6812 20.0001 31.6812C20.8033 31.6812 21.5084 31.2542 21.9009 30.6154C23.2523 30.1368 24.0474 29.0714 24.3586 28.1868C24.4567 28.13 24.5515 28.0691 24.6415 28.0031C24.9908 27.7469 25.2522 27.4402 25.4149 27.1032C26.848 26.3711 28.3853 24.5331 28.8669 22.2411C28.8796 22.2546 28.8918 22.2686 28.9048 22.282C29.1108 22.4955 29.3871 22.6105 29.6763 22.6105C29.763 22.6105 29.8508 22.6002 29.9383 22.5791C30.325 22.4857 30.6243 22.2043 30.7388 21.8262C30.9466 21.1402 31.1866 19.9664 31.1506 18.2696C31.1149 16.5935 31.6351 16.3082 31.7103 16.276C31.8085 16.2695 31.8811 16.2226 31.9427 16.1436C32.0065 16.0616 32.0096 15.9575 31.9878 15.8558ZM10.2268 21.8958C10.0849 21.8616 9.97552 21.7594 9.93404 21.6224C9.7411 20.9853 9.51821 19.889 9.55238 18.2845C9.5873 16.6433 9.11518 15.9963 8.76446 15.7426C9.03896 14.7178 10.2133 11.0222 12.8633 11.0222C13.4173 11.0222 14.0869 11.2271 14.5896 11.4174C12.7016 12.4539 12.418 14.7472 12.1427 16.9732C11.9188 18.7841 11.6873 20.6566 10.5897 21.7939C10.4558 21.9326 10.2913 21.9114 10.2268 21.8958ZM16.6023 28.5648C16.9079 28.6378 17.2295 28.6762 17.5585 28.6762C17.6296 28.6762 17.7002 28.6738 17.7705 28.6703V29.4516C17.7705 29.5362 17.7757 29.6196 17.7849 29.7017C17.257 29.3996 16.8657 28.9841 16.6023 28.5648ZM20 30.9783C19.1582 30.9783 18.4733 30.2934 18.4733 29.4516V28.5748C18.9049 28.4764 19.3049 28.3082 19.6486 28.0779V29.076C19.6486 29.2701 19.806 29.4275 20 29.4275C20.1941 29.4275 20.3514 29.2701 20.3514 29.076V28.0779C20.6951 28.3082 21.0951 28.4764 21.5267 28.5748V29.4516C21.5267 30.2935 20.8418 30.9783 20 30.9783ZM22.2151 29.7026C22.2243 29.6202 22.2296 29.5365 22.2296 29.4517V28.6703C22.2998 28.6739 22.3705 28.6763 22.4416 28.6763C22.771 28.6763 23.093 28.6377 23.3989 28.5645C23.1355 28.9857 22.7446 29.4006 22.2151 29.7026ZM30.4477 18.2845C30.4819 19.8889 30.259 20.9853 30.0661 21.6224C30.0246 21.7594 29.9151 21.8616 29.7733 21.8958C29.7088 21.9113 29.5443 21.9326 29.4105 21.7939C28.3129 20.6566 28.0814 18.7841 27.8574 16.9732C27.7081 15.766 27.5538 14.5176 27.1404 13.4848C27.0683 13.3046 26.8638 13.217 26.6836 13.2891C26.5033 13.3612 26.4158 13.5658 26.4879 13.7459C26.8674 14.6943 27.0095 15.8432 27.1599 17.0595C27.3521 18.6131 27.5498 20.2091 28.2811 21.4539C28.1297 22.86 27.5466 23.9514 27.079 24.6237C26.6496 25.2411 26.1331 25.7723 25.6066 26.1477C25.5705 25.5236 25.2312 24.9472 24.6415 24.5148C24.078 24.1015 23.3428 23.8656 22.5603 23.8438C22.3367 22.9769 21.2926 22.3392 20.0001 22.3392C18.7076 22.3392 17.6635 22.9769 17.4399 23.8439C17.2728 23.8485 17.1063 23.8626 16.9434 23.8868C16.7515 23.9154 16.619 24.0942 16.6476 24.2862C16.6735 24.4606 16.8235 24.5859 16.9947 24.5859C17.0119 24.5859 17.0294 24.5847 17.0469 24.582C17.1765 24.5627 17.309 24.5511 17.4423 24.5466C17.6588 25.3295 18.5738 25.7465 19.2057 26.0343L19.2315 26.046C19.4758 26.1574 19.7379 26.2131 20.0002 26.2131C20.2624 26.2131 20.5247 26.1574 20.7689 26.046L20.7946 26.0343C21.4266 25.7464 22.3416 25.3295 22.5581 24.5466C23.8638 24.589 24.9075 25.3408 24.9075 26.259C24.9075 27.2044 23.8013 27.9735 22.4417 27.9735C21.7593 27.9735 21.123 27.7801 20.6502 27.4289C20.2675 27.1446 19.733 27.1446 19.3503 27.4289C18.8774 27.78 18.2412 27.9735 17.5587 27.9735C16.1992 27.9735 15.093 27.2044 15.093 26.259C15.093 25.846 15.3123 25.4451 15.7106 25.1302C15.8629 25.0099 15.8887 24.7889 15.7683 24.6366C15.648 24.4844 15.427 24.4586 15.2747 24.5789C14.7379 25.0034 14.4283 25.5568 14.3936 26.1476C13.8671 25.7723 13.3507 25.2411 12.9213 24.6238C12.4538 23.9514 11.8706 22.8601 11.7193 21.4539C12.4505 20.2092 12.6483 18.6132 12.8404 17.0596C12.9934 15.8226 13.1378 14.6541 13.5322 13.6974C13.9402 12.7075 14.5631 12.1007 15.4851 11.7942C16.2338 12.0585 16.7341 11.9239 17.3588 11.7554C17.9493 11.5961 18.6844 11.3979 20.0002 11.3979C21.316 11.3979 22.051 11.5961 22.6417 11.7554C23.0122 11.8553 23.3389 11.9435 23.6997 11.9435C23.947 11.9435 24.2105 11.9018 24.515 11.7944C25.0136 11.96 25.4213 12.2106 25.7561 12.5607C25.8902 12.701 26.1127 12.706 26.253 12.5718C26.3933 12.4377 26.3982 12.2152 26.2641 12.0749C26.0156 11.8151 25.7294 11.5957 25.4082 11.4184C25.9111 11.2278 26.5821 11.0223 27.137 11.0223C29.7824 11.0223 30.9601 14.7181 31.2356 15.7429C30.8847 15.9966 30.4128 16.6436 30.4477 18.2845ZM21.9023 24.193C21.9023 24.7572 21.0936 25.1256 20.5031 25.3947L20.4773 25.4064C20.174 25.5447 19.8261 25.5447 19.5228 25.4064L19.497 25.3947C18.9065 25.1256 18.0977 24.7572 18.0977 24.193C18.0977 23.5691 18.9689 23.042 20 23.042C21.0312 23.042 21.9023 23.5691 21.9023 24.193Z" fill="black"/>
</g>
<defs>
<clipPath id="clip0_92_3881">
<rect width="24" height="24" fill="white" transform="translate(8 9)"/>
</clipPath>
</defs>
</svg>
