<svg width="40" height="40" viewBox="0 0 40 40" fill="none" xmlns="http://www.w3.org/2000/svg">
<circle cx="20" cy="20" r="20" fill="#FFF3EC"/>
<path d="M24.7425 12.2617L22.5274 13.8704L21.6877 19.9995L22.7289 26.0949L24.7425 27.7372C25.5309 27.6173 26.2941 27.4239 27.0145 27.1609V12.838C26.2941 12.5751 25.5309 12.3816 24.7425 12.2617Z" fill="#EFEDEE"/>
<path d="M24.9568 26.713C24.5267 26.7781 24.0894 26.8217 23.6475 26.8444L24.7426 27.7375C25.531 27.6176 26.2942 27.4242 27.0146 27.1612V26.2236C26.3553 26.4408 25.6658 26.6052 24.9568 26.713Z" fill="#D2D2D2"/>
<path d="M32.3541 21.9217L32.1531 21.5688L32.5252 21.1595C32.587 20.7854 32.6194 20.3989 32.6194 20.0003C32.6194 16.5682 30.2422 14.0141 27.0146 12.8389C25.8313 14.8544 25.189 17.354 25.189 20.0003C25.189 22.6466 25.8312 25.1467 27.0146 27.1617C29.6066 26.2178 31.6498 24.3846 32.3541 21.9217Z" fill="#FA9F6A"/>
<path d="M10.15 23.4467C8.54304 24.4557 7.38086 23.6693 7.38086 20C7.38086 16.3306 8.54304 15.5442 10.15 16.5532V23.4467Z" fill="#3A484A"/>
<path d="M12.0838 18.3607V21.6402C11.4022 22.4522 10.7453 23.0729 10.1499 23.4472C9.67479 22.9061 9.39575 21.7999 9.39575 20.0004C9.39575 18.201 9.67485 17.0948 10.1499 16.5537C10.7453 16.928 11.4022 17.5486 12.0838 18.3607Z" fill="#E0712F"/>
<path d="M17.316 13.3952C14.8919 10.3449 18.1749 9.00849 21.5194 10.1686L17.316 13.3952Z" fill="#3A484A"/>
<path d="M17.316 26.6035C14.8919 29.6538 18.1749 30.9902 21.5194 29.8301L17.316 26.6035Z" fill="#3A484A"/>
<path d="M24.7424 12.2621L17.316 13.3955C17.316 13.3955 18.2616 10.9004 21.5194 10.1689C22.6614 10.5654 23.811 11.2526 24.7424 12.2621Z" fill="#E0712F"/>
<path d="M24.7424 27.7379L17.316 26.6045C17.316 26.6045 18.2616 29.0996 21.5194 29.8311C22.6614 29.4346 23.811 28.7475 24.7424 27.7379Z" fill="#FA9F6A"/>
<path d="M17.3162 13.3952H17.3157C17.3155 13.3955 17.3154 13.3958 17.3153 13.3961L15.7094 15.0794L14.5339 20.4964L15.7094 24.8859L17.3157 26.6037C18.3197 27.0964 19.366 27.439 20.4214 27.6435V12.3555C19.3665 12.56 18.3197 12.9025 17.3162 13.3952Z" fill="#EFEDEE"/>
<path d="M20.3641 26.6138H20.3636C19.2417 26.3964 18.1293 26.0322 17.062 25.5084C16.5854 25.275 16.118 25.0098 15.6631 24.7119L15.7099 24.8866L17.3162 26.6044C17.5672 26.7276 17.8208 26.8414 18.0766 26.946C18.8439 27.2598 19.6303 27.4908 20.4219 27.6442V26.6243C20.4026 26.6207 20.3834 26.6175 20.3641 26.6138Z" fill="#D2D2D2"/>
<path d="M22.9217 19.9998C22.9217 22.8052 23.5594 25.4862 24.7422 27.7375C23.3504 27.9481 21.8789 27.9275 20.422 27.6439H20.4215C19.0478 25.5527 18.2961 22.8616 18.2961 19.9998C18.2961 17.138 19.0478 14.4474 20.4215 12.3558H20.422C21.8789 12.0721 23.3504 12.0515 24.7422 12.2621C23.5599 14.5134 22.9217 17.1944 22.9217 19.9998Z" fill="#FA9F6A"/>
<path d="M16.0293 19.9998C16.0293 22.3478 16.4761 24.6091 17.3159 26.604C15.1054 25.5215 13.1044 23.715 11.6929 21.0602C11.3413 20.3982 11.3413 19.6013 11.6929 18.9393C13.1044 16.2846 15.1049 14.4781 17.3159 13.3955C16.4767 15.3904 16.0293 17.6512 16.0293 19.9998Z" fill="#FA9F6A"/>
<path d="M27.3251 27.0428C28.362 26.6292 29.3421 26.0542 30.1764 25.3095C30.1802 25.3061 30.1841 25.3028 30.1878 25.2994C30.5696 24.9574 30.9203 24.5797 31.2278 24.1695C31.2309 24.1654 31.2339 24.1612 31.237 24.1571C31.6277 23.6342 31.9461 23.0632 32.1783 22.4482C31.1177 24.1059 29.4037 25.3606 27.3717 26.1005C27.1138 26.1946 26.8505 26.2796 26.5831 26.3568C26.7177 26.6326 26.8614 26.9011 27.0142 27.1614C27.1184 27.1235 27.2221 27.0839 27.3251 27.0428Z" fill="#E0712F"/>
<path d="M20.3632 26.6139C20.1591 26.5744 19.9553 26.5298 19.7521 26.4805C19.9554 26.8855 20.1785 27.2745 20.422 27.6443C21.6693 27.8872 22.9532 27.9425 24.2167 27.8061C24.393 27.787 24.5682 27.7643 24.7422 27.738C24.5814 27.4319 24.431 27.1175 24.2905 26.7963C23.0115 26.9239 21.6821 26.8706 20.3632 26.6139Z" fill="#E0712F"/>
<path d="M17.3157 26.6042C17.1527 26.2169 17.0049 25.8193 16.8719 25.4133C14.7782 24.3452 12.8724 22.6565 11.4437 20.2529C11.4465 20.2778 11.4502 20.3026 11.4538 20.3275C11.4911 20.5833 11.5714 20.8319 11.6928 21.0604C12.0738 21.777 12.5146 22.4626 13.0152 23.1018C14.2464 24.674 15.727 25.8261 17.3157 26.6042Z" fill="#E0712F"/>
<path d="M30.5531 19.7192C30.2115 19.5059 29.7876 19.4525 29.3898 19.5729C28.9921 19.6933 28.6689 19.9729 28.5031 20.3399C28.4165 20.5316 28.5017 20.7572 28.6935 20.8439C28.8834 20.9297 29.1113 20.8438 29.1973 20.6536C29.2726 20.4868 29.4233 20.3587 29.6106 20.302C29.7979 20.2452 29.9943 20.2683 30.1495 20.3652C30.3279 20.4767 30.5629 20.4224 30.6743 20.2441C30.7857 20.0657 30.7315 19.8308 30.5531 19.7192Z" fill="black"/>
<path d="M33 20.0004C33 18.2827 32.4195 16.6683 31.3213 15.3316C30.3018 14.0906 28.8578 13.1051 27.1449 12.4812C26.4419 12.2246 25.6973 12.0324 24.9301 11.9077C24.0361 10.9713 22.9033 10.2469 21.6441 9.80978C20.8223 9.52469 19.9725 9.37402 19.1866 9.37402C17.7452 9.37402 16.6835 9.86076 16.2739 10.7094C16.0265 11.2221 15.9282 12.066 16.7438 13.262C14.8393 14.2827 13.2197 15.791 11.9942 17.679C11.4125 17.0375 10.8616 16.5512 10.3525 16.2312C9.86416 15.9245 9.4083 15.769 8.99753 15.769C8.53573 15.769 7.89659 15.9653 7.47414 16.9007C7.15955 17.5974 7 18.6403 7 20.0004C7 21.3603 7.15955 22.4032 7.47425 23.0999C7.89664 24.0353 8.53578 24.2318 8.99768 24.2318C9.4083 24.2318 9.86416 24.0763 10.3527 23.7695C10.8617 23.4496 11.4125 22.9633 11.9942 22.3218C13.2196 24.2095 14.8392 25.7178 16.7438 26.7388C15.9284 27.9347 16.0267 28.7786 16.2741 29.2912C16.6837 30.1399 17.7453 30.6268 19.187 30.6268C19.9726 30.6268 20.8224 30.4761 21.6443 30.191C22.9034 29.7539 24.0361 29.0295 24.9301 28.0932C25.6974 27.9683 26.4421 27.7761 27.1455 27.5193C28.8578 26.8956 30.3018 25.9101 31.3214 24.6691C32.3971 23.3598 33 21.6955 33 20.0004ZM20.9535 11.8801C20.0508 12.0127 19.1437 12.2425 18.282 12.5655C18.2741 12.5684 18.2661 12.5712 18.2583 12.5742C18.2624 12.5689 18.2666 12.5636 18.2708 12.5584C18.5908 12.1558 18.968 11.8018 19.3873 11.5044C20.001 11.0691 20.7029 10.7652 21.4314 10.5827C21.4537 10.5771 21.4762 10.5718 21.4987 10.5664C22.2823 10.8509 23.0097 11.2575 23.6471 11.7642C22.7806 11.7113 21.9109 11.7457 21.0461 11.8667C21.0152 11.8711 20.9843 11.8755 20.9535 11.8801ZM16.9599 11.0405C17.2334 10.4739 18.0658 10.1357 19.1867 10.1357C19.4956 10.1357 19.8165 10.162 20.1422 10.2135C18.5416 10.9003 17.6735 11.9922 17.264 12.6666C16.8612 12.0196 16.7556 11.4638 16.9599 11.0405ZM8.99763 23.47C7.92229 23.4699 7.76172 21.2961 7.76172 20.0004C7.76172 18.7046 7.92229 16.5307 8.99753 16.5307C9.17415 16.5307 9.37484 16.5823 9.59705 16.6844C9.59467 16.6887 9.59254 16.6933 9.59015 16.6976C9.12083 17.5498 9.04628 18.6018 9.02104 19.555C9.01028 19.9608 9.01231 20.3928 9.03501 20.808C9.03511 20.8099 9.03516 20.8118 9.03526 20.8137C9.0798 21.6597 9.17364 22.5486 9.59015 23.3032C9.59248 23.3074 9.59467 23.3121 9.59705 23.3164C9.37489 23.4185 9.17425 23.47 8.99763 23.47ZM11.5797 21.6428C11.1063 22.1827 10.6601 22.6097 10.2479 22.9176C10.2452 22.9126 10.234 22.8913 10.231 22.8856C9.78977 22.0299 9.77682 20.9408 9.77682 20.0004C9.77682 19.228 9.81023 18.442 10.015 17.6932C10.0693 17.4945 10.1365 17.2986 10.231 17.1153C10.234 17.1095 10.2453 17.0883 10.2479 17.0832C10.6602 17.391 11.1063 17.818 11.5797 18.358C11.5959 18.3765 11.3746 18.7277 11.3567 18.7613C10.9446 19.5372 10.9446 20.4636 11.3568 21.2396C11.3747 21.2734 11.595 21.6252 11.5797 21.6428ZM12.3708 21.4867C12.2523 21.2879 12.138 21.0865 12.0294 20.8821C11.7361 20.33 11.7361 19.6708 12.0293 19.1188C12.1381 18.9141 12.2523 18.7122 12.3713 18.5133C13.4482 16.7133 14.8876 15.2513 16.5927 14.2236C15.9546 16.0769 15.6486 18.0418 15.6486 20.0004C15.6486 20.8396 15.7062 21.6853 15.82 22.5141C15.8486 22.7224 16.0404 22.8686 16.2491 22.8396C16.4526 22.8114 16.6026 22.6143 16.5747 22.4105C16.4656 21.6158 16.4103 20.8048 16.4103 20.0004C16.4103 17.8457 16.7963 15.6732 17.6136 13.6759C17.6198 13.673 17.6259 13.6699 17.6321 13.667C17.962 13.5106 18.2993 13.3697 18.6422 13.2445C18.9548 13.1303 19.2718 13.0295 19.5927 12.9412C19.6059 12.9376 19.6191 12.934 19.6324 12.9304C19.6273 12.9397 19.6224 12.9491 19.6173 12.9584C18.7074 14.6241 18.1869 16.4906 17.997 18.3745C17.9425 18.9147 17.9154 19.4575 17.9154 20.0004C17.9154 21.9559 18.2618 23.9204 18.9983 25.7353C19.1797 26.1821 19.3847 26.621 19.6177 27.0433C19.6226 27.0523 19.6274 27.0614 19.6323 27.0704C19.6193 27.0669 19.6063 27.0633 19.5934 27.0598C18.92 26.8752 18.2627 26.6328 17.6317 26.3338C17.6255 26.3309 17.6194 26.3279 17.6133 26.325C17.5877 26.3128 17.5542 26.1791 17.5413 26.1465C17.2491 25.4062 17.0161 24.6417 16.8392 23.8658C16.7925 23.6607 16.5885 23.5322 16.3833 23.5791C16.1782 23.6258 16.0498 23.8299 16.0965 24.035C16.2304 24.6223 16.3949 25.2028 16.591 25.7724C16.5915 25.7739 16.592 25.7755 16.5925 25.777C14.8871 24.7489 13.4475 23.2866 12.3708 21.4867ZM20.9167 28.1158C21.8197 28.2503 22.7357 28.2921 23.6471 28.2364C23.0097 28.7432 22.2823 29.1498 21.4986 29.4344C20.6967 29.2418 19.9177 28.9086 19.261 28.4046C18.8949 28.1237 18.5586 27.8045 18.2712 27.443C18.2669 27.4376 18.2626 27.4321 18.2584 27.4268C18.2656 27.4294 18.2728 27.432 18.28 27.4347C19.1318 27.7538 20.017 27.9818 20.9167 28.1158ZM19.1867 29.8651C18.0659 29.8651 17.2335 29.5268 16.9601 28.9601C16.7558 28.5368 16.8614 27.9811 17.264 27.3342C17.6735 28.0087 18.5417 29.1005 20.1421 29.7872C19.8165 29.8387 19.4958 29.8651 19.187 29.8651C19.1868 29.8651 19.1868 29.8651 19.1867 29.8651ZM24.9549 27.3174C24.7846 26.9773 24.6276 26.63 24.4845 26.2775C23.6784 24.2916 23.3026 22.1401 23.3026 20.0004C23.3026 18.7474 23.4333 17.5077 23.6909 16.3156C23.7354 16.1101 23.6048 15.9073 23.3992 15.8629C23.204 15.8207 22.9908 15.9496 22.9464 16.1547C22.6773 17.3994 22.5409 18.6933 22.5409 20.0004C22.5409 22.541 23.0583 25.0964 24.1464 27.3981C24.1513 27.4083 24.156 27.4184 24.1609 27.4286C23.7298 27.4745 23.2937 27.4982 22.8584 27.4982C22.1733 27.4982 20.663 27.3155 20.6527 27.2993C20.6464 27.2894 20.64 27.2797 20.6338 27.2698C19.6083 25.645 19.017 23.7612 18.7879 21.8608C18.7137 21.2454 18.6774 20.6255 18.6771 20.0056C18.6771 20.0039 18.6771 20.0021 18.6771 20.0004C18.6771 18.1111 19.0181 16.1931 19.7472 14.4469C19.9669 13.9206 20.2253 13.4135 20.5156 12.9229C20.5365 12.8882 20.6466 12.7111 20.6528 12.7014C20.6845 12.6957 20.7909 12.6766 20.8123 12.673C21.487 12.56 22.1737 12.5025 22.8585 12.5025C23.2938 12.5025 23.73 12.5262 24.1611 12.5721C23.949 13.0151 23.4204 14.4055 23.3452 14.6465C23.3449 14.6476 23.3445 14.6487 23.3441 14.6498C23.2817 14.8482 23.3953 15.0653 23.5931 15.1275C23.7938 15.1908 24.0076 15.0791 24.0707 14.8785C24.2739 14.2329 24.5193 13.5995 24.8077 12.9871C24.8556 12.8852 24.9048 12.784 24.9552 12.6833C25.4704 12.7738 25.9736 12.897 26.4582 13.0513C26.4241 13.1147 26.3906 13.1785 26.3576 13.2426C25.2873 15.3184 24.8079 17.674 24.8079 20.0004C24.8079 22.4016 25.3168 24.8252 26.4582 26.9494C25.9735 27.1038 25.4703 27.227 24.9549 27.3174ZM27.1845 26.6896C27.1747 26.6719 27.1259 26.5822 27.1114 26.5549C26.2974 25.0271 25.8262 23.329 25.6511 21.6104C25.5967 21.0756 25.5695 20.5379 25.5695 20.0004C25.5695 18.2201 25.8621 16.4112 26.5132 14.7506C26.7065 14.2574 26.9293 13.7757 27.1844 13.3112C30.3559 14.572 32.2383 17.053 32.2383 20.0004C32.2383 20.3976 32.2029 20.786 32.1361 21.1644C31.9055 21.1633 31.5595 21.1416 31.2076 21.0448C31.005 20.989 30.7951 21.108 30.7394 21.3109C30.6836 21.5137 30.8027 21.7234 31.0055 21.7792C31.3526 21.8747 31.6893 21.9109 31.9546 21.9221C31.3185 24.0086 29.6376 25.7143 27.1845 26.6896Z" fill="black"/>
</svg>
