<svg width="40" height="40" viewBox="0 0 40 40" fill="none" xmlns="http://www.w3.org/2000/svg">
<circle cx="20" cy="20" r="20" fill="#FFEFF1"/>
<path d="M15.0577 9.04498C13.9062 7.05042 10.9585 5.67891 8.96384 6.83046C6.96922 7.98202 6.68321 11.2206 7.83476 13.2151C8.98632 15.2097 15.1124 22.0862 17.1069 20.9346C19.1015 19.7831 16.2093 11.0395 15.0577 9.04498Z" fill="#FFD4D5"/>
<path d="M15.2209 17.6672C13.0719 15.9725 10.5439 12.9852 9.96601 11.9843C9.37358 10.9582 9.59654 9.30649 10.1944 8.96124C10.7571 8.63629 12.3088 9.20504 12.9265 10.275C13.4927 11.2556 14.8232 14.9291 15.2209 17.6672Z" fill="#FFB5C0"/>
<path d="M24.9417 9.04498C26.0932 7.05042 29.0409 5.67891 31.0355 6.83046C33.0302 7.98202 33.3162 11.2206 32.1646 13.2152C31.0131 15.2097 24.887 22.0863 22.8925 20.9347C20.8979 19.7831 23.7901 11.0395 24.9417 9.04498Z" fill="#FFEDEE"/>
<path d="M24.7787 17.6675C25.176 14.9304 26.5071 11.2552 27.073 10.275C27.6913 9.2042 29.2428 8.63644 29.8053 8.96128C30.4031 9.30647 30.626 10.9581 30.0336 11.9843C29.4665 12.9665 26.9488 15.9561 24.7787 17.6675Z" fill="#FFB5C0"/>
<path d="M20.0522 18.4697C17.4246 18.4697 14.9338 19.6741 13.3292 21.7549C12.3019 23.0872 11.5757 24.5135 11.5757 25.8838C11.5757 30.5652 15.3708 33.5897 20.0522 33.5897C20.8258 33.5897 21.575 33.5066 22.287 33.3476C22.7772 33.2382 23.2508 33.0925 23.7013 32.9126C26.5569 31.7727 28.5288 29.2591 28.5288 25.8837C28.5288 24.5135 27.8026 23.0871 26.7753 21.7549C25.1707 19.6742 22.6799 18.4697 20.0522 18.4697Z" fill="#FFEDEE"/>
<path d="M21.7141 17.0819L21.125 17.3619L20.9064 16.7473C20.7635 16.3455 20.4078 16.1445 20.0523 16.1445C19.6967 16.1445 19.341 16.3455 19.1981 16.7473L18.9796 17.3619L18.3905 17.0819C17.62 16.7156 16.8163 17.5194 17.1825 18.2898L17.4626 18.8704C17.4628 18.8705 17.463 18.8706 17.4632 18.8708C15.8419 19.385 14.3913 20.3778 13.3292 21.7552C12.3019 23.0874 11.5757 24.5137 11.5757 25.884C11.5757 30.5655 15.3708 33.59 20.0523 33.59C20.8479 33.59 21.6337 33.5033 22.4052 33.3209C21.5672 33.192 20.7751 32.924 20.0523 32.5427V32.5274C17.649 31.2593 16.0452 28.9213 16.0452 25.884C16.0452 25.6483 16.0667 25.3902 16.1075 25.1159C16.5376 22.2257 18.6925 19.891 21.5216 19.1599L22.6419 18.8704L22.922 18.2897C23.2882 17.5194 22.4845 16.7156 21.7141 17.0819Z" fill="#FFD4D5"/>
<path d="M15.7013 29.4914C16.5879 29.4914 17.3066 28.9191 17.3066 28.213C17.3066 27.5069 16.5879 26.9346 15.7013 26.9346C14.8147 26.9346 14.0959 27.5069 14.0959 28.213C14.0959 28.9191 14.8147 29.4914 15.7013 29.4914Z" fill="#FFB5C0"/>
<path d="M24.4028 29.4914C25.2894 29.4914 26.0082 28.9191 26.0082 28.213C26.0082 27.5069 25.2894 26.9346 24.4028 26.9346C23.5162 26.9346 22.7975 27.5069 22.7975 28.213C22.7975 28.9191 23.5162 29.4914 24.4028 29.4914Z" fill="#FFB5C0"/>
<path d="M21.146 27.3863C21.146 26.9599 20.6563 26.6143 20.0522 26.6143C19.4482 26.6143 18.9585 26.9599 18.9585 27.3863C18.9585 27.8127 19.4482 28.3643 20.0522 28.3643C20.6563 28.3643 21.146 27.8127 21.146 27.3863Z" fill="#FF8E9E"/>
<path d="M29.2487 16.2366C28.3745 17.1909 26.6746 18.9429 25.1129 19.955C24.8774 20.1077 24.8615 20.447 25.0817 20.621C26.533 21.7679 28.1186 24.0415 28.1186 25.8837C28.1186 30.2981 24.5406 33.1795 20.0522 33.1795C15.6633 33.1795 11.9858 30.3551 11.9858 25.8837C11.9858 25.4767 12.0587 25.0427 12.2027 24.5937C12.2718 24.378 12.153 24.1471 11.9372 24.0779C11.7216 24.009 11.4906 24.1275 11.4214 24.3433C11.2516 24.8733 11.1654 25.3916 11.1654 25.8837C11.1654 30.781 15.1274 33.9998 20.0521 33.9998C24.9693 33.9998 28.9388 30.789 28.9388 25.8837C28.9388 23.8887 27.4107 21.5881 26.0126 20.3332C27.5124 19.2566 29.0355 17.6835 29.8535 16.7907C30.0065 16.6236 29.9951 16.3642 29.8281 16.2112C29.6613 16.0583 29.4018 16.0696 29.2487 16.2366Z" fill="black"/>
<path d="M15.6268 17.609C15.2148 14.7725 13.8552 11.0639 13.2817 10.0707C12.5817 8.85806 10.8028 8.137 9.98936 8.60682C9.11715 9.11039 8.95303 11.0507 9.61081 12.1902C10.1845 13.1837 12.7168 16.2155 14.9669 17.99C15.2565 18.2184 15.6801 17.9765 15.6268 17.609ZM10.3213 11.78C9.81092 10.896 10.0551 9.51611 10.3996 9.31727C10.7039 9.14139 12.0302 9.5434 12.5714 10.4809C13.0553 11.319 14.0956 14.159 14.6149 16.6184C12.7448 14.9392 10.8053 12.6183 10.3213 11.78Z" fill="black"/>
<path d="M25.0327 17.9904C27.2829 16.2159 29.815 13.1838 30.3887 12.1902C31.0507 11.0436 30.8773 9.10754 30.0104 8.60693C29.1931 8.13536 27.4147 8.86374 26.7178 10.0708C26.1442 11.0645 24.7844 14.7737 24.3728 17.6095C24.3192 17.9786 24.745 18.2173 25.0327 17.9904ZM27.4283 10.481C27.9693 9.54411 29.2967 9.14194 29.6002 9.31737C29.9446 9.51622 30.1888 10.8961 29.6784 11.7801C29.1943 12.6185 27.2547 14.9397 25.3847 16.6189C25.9038 14.1598 26.9442 11.3195 27.4283 10.481Z" fill="black"/>
<path d="M17.0472 26.9824V26.3262C17.0472 26.0996 16.8637 25.916 16.6371 25.916C16.4105 25.916 16.2269 26.0996 16.2269 26.3262V26.9824C16.2269 27.209 16.4105 27.3926 16.6371 27.3926C16.8637 27.3926 17.0472 27.2089 17.0472 26.9824Z" fill="black"/>
<path d="M23.8772 26.9824V26.3262C23.8772 26.0996 23.6936 25.916 23.467 25.916C23.2405 25.916 23.0569 26.0996 23.0569 26.3262V26.9824C23.0569 27.209 23.2405 27.3926 23.467 27.3926C23.6936 27.3926 23.8772 27.2089 23.8772 26.9824Z" fill="black"/>
<path d="M21.4358 27.8834C21.5337 27.6791 21.4474 27.4341 21.2431 27.3363C21.039 27.2384 20.7939 27.3246 20.696 27.5289C20.595 27.7398 20.3415 27.9533 20.0525 27.9533C19.7634 27.9533 19.51 27.7399 19.4089 27.5289C19.311 27.3246 19.066 27.2384 18.8618 27.3363C18.6576 27.4341 18.5713 27.6791 18.6691 27.8834C18.835 28.2295 19.183 28.5771 19.6423 28.7131V29.1191L19.0024 29.759C18.8422 29.9192 18.8422 30.1789 19.0024 30.3391C19.1627 30.4992 19.4223 30.4992 19.5825 30.3391L20.0525 29.8691L20.5225 30.3391C20.6827 30.4992 20.9423 30.4992 21.1025 30.3391C21.2627 30.1788 21.2627 29.9192 21.1025 29.759L20.4626 29.1191V28.7131C20.9218 28.5771 21.27 28.2295 21.4358 27.8834Z" fill="black"/>
<path d="M29.3893 6C27.5565 6 25.5368 7.19432 24.5867 8.83987C23.8865 10.0527 22.5917 13.5897 22.0478 16.5833C21.7457 16.5973 21.5667 16.6975 21.359 16.7962L21.2927 16.6097C20.8776 15.4421 19.2262 15.4436 18.8116 16.6096L18.7452 16.7962C18.5378 16.6976 18.3083 16.568 17.9514 16.5808C17.4075 13.5874 16.1159 10.0576 15.4129 8.83992C14.4628 7.19437 12.4431 6 10.6104 6C8.14801 6 6.74927 8.07834 6.74927 10.5379C6.74927 11.581 7.0086 12.6048 7.47956 13.4203C8.32246 14.8803 11.4817 18.5544 14.0457 20.3749C13.2826 21.0697 12.6271 21.944 12.1407 22.7729C12.0261 22.9682 12.0915 23.2196 12.2869 23.3342C12.4823 23.4489 12.7336 23.3834 12.8482 23.1881C13.4104 22.23 14.1082 21.3542 14.9782 20.6565C15.1971 20.4809 15.1789 20.1416 14.9422 19.9906C12.4531 18.4032 9.02651 14.4591 8.18996 13.0102C6.91371 10.8 7.54721 6.82031 10.6104 6.82031C12.1435 6.82031 13.9028 7.8649 14.7025 9.25013C15.3717 10.4092 16.6666 13.9815 17.1712 16.8789C16.711 17.2556 16.5395 17.8923 16.8131 18.4677L17.0931 19.0484C17.23 19.3325 17.6272 19.3639 17.8044 19.098C17.8917 18.9671 17.8938 18.8042 17.8237 18.6748L17.5529 18.1134C17.3525 17.6918 17.7913 17.2509 18.2143 17.452L18.8034 17.7321C19.0231 17.8364 19.2846 17.7277 19.3659 17.4991L19.5845 16.8845C19.7412 16.4438 20.3634 16.4443 20.5199 16.8845L20.7385 17.4991C20.8198 17.7276 21.0812 17.8365 21.3011 17.7321L21.8901 17.452C22.3189 17.2479 22.7456 17.7054 22.5525 18.1113L22.2848 18.6662C22.2505 18.7263 22.2309 18.7959 22.2309 18.8702C22.2309 19.3045 22.823 19.4389 23.0113 19.0483L23.2923 18.4656C23.5838 17.8526 23.3664 17.1844 22.8399 16.8137C23.3525 13.9291 24.6359 10.3952 25.2972 9.24991C26.0969 7.8649 27.8561 6.82031 29.3893 6.82031C32.453 6.82031 33.0845 10.8021 31.8097 13.0101C31.5455 13.4677 31.002 14.1987 30.3188 15.0157C30.1735 15.1895 30.1965 15.4481 30.3703 15.5934C30.5441 15.7387 30.8026 15.7156 30.948 15.5419C31.6601 14.6904 32.2332 13.9171 32.52 13.4202C33.0102 12.5716 33.2503 11.5385 33.2503 10.5377C33.2504 8.08687 31.8582 6 29.3893 6V6Z" fill="black"/>
</svg>
