<svg width="40" height="40" viewBox="0 0 40 40" fill="none" xmlns="http://www.w3.org/2000/svg">
<circle cx="20" cy="20" r="20" fill="#FFF4EC"/>
<g clip-path="url(#clip0_92_4108)">
<path d="M12.5791 27.5137V30.0211H11.8141C11.3916 30.0211 11.0491 30.3636 11.0491 30.7861C11.0491 31.2085 11.3916 31.5511 11.8141 31.5511H12.5791H13.5565H13.9202C14.5534 31.5511 15.0667 31.0377 15.0667 30.4045V27.5137H12.5791Z" fill="#F1B986"/>
<path d="M27.4206 27.5137V30.0211H28.1856C28.6081 30.0211 28.9506 30.3636 28.9506 30.7861C28.9506 31.2085 28.6081 31.5511 28.1856 31.5511H27.4206H26.4432H26.0795C25.4463 31.5511 24.933 31.0377 24.933 30.4045V27.5137H27.4206Z" fill="#F1B986"/>
<path d="M31.6484 19.9022C31.6484 26.3356 26.4334 31.5511 20 31.5511C18.874 31.5511 17.7851 31.3913 16.7552 31.0931C11.9006 29.6877 8.35156 25.2096 8.35156 19.9022C8.35156 17.4693 9.09739 15.2107 10.3734 13.3422V17.2245C10.3734 17.2245 12.2316 11.1142 15.3803 9.20625L15.0015 12.2894C15.0282 12.1998 15.8992 9.32766 19.0254 8.44922L20 11.814L20.9746 8.44922C24.1008 9.3277 24.9718 12.1998 24.9985 12.2894L24.6198 9.20625C27.7685 11.1142 29.6267 17.2245 29.6267 17.2245V13.3422C30.9026 15.2107 31.6484 17.4693 31.6484 19.9022Z" fill="#C17D4F"/>
<path d="M14.9364 21.4782C15.5364 23.8671 16.2508 27.9875 16.7552 31.0931C11.9006 29.6877 8.35156 25.2096 8.35156 19.9022C8.35156 17.4693 9.09739 15.2107 10.3734 13.3422V17.2245C10.3734 17.2245 12.2316 11.1142 15.3803 9.20625L15.0015 12.2894C15.0282 12.1998 15.8992 9.32766 19.0254 8.44922C17.0177 10.457 15.6826 14.441 15.9901 16.3344C15.9901 16.3344 14.9541 15.4798 15.3193 13.8926C15.2875 13.969 13.8952 17.331 14.9364 21.4782Z" fill="#985E33"/>
<path d="M27.0826 21.4342V26.4101C27.0826 29.2495 24.7809 31.5511 21.9421 31.5511H18.0579C15.219 31.5511 12.9174 29.2495 12.9174 26.4101V21.4342C12.9174 21.4342 14.093 21.4098 14.5974 23.0598L14.8252 21.9976L14.9354 21.4825L14.9363 21.4782L15.6254 18.2634C15.6254 18.2634 18.1286 19.3617 18.0761 21.4646C18.1446 20.8266 18.4685 19.1077 20 17.5762C21.5314 19.1076 21.8554 20.8266 21.9238 21.4646C21.8713 19.3617 24.3745 18.2634 24.3745 18.2634L25.4026 23.0598C26.0105 21.4454 27.0826 21.4342 27.0826 21.4342Z" fill="#F1D0A5"/>
<path d="M19.519 31.5516H18.0579C15.219 31.5516 12.9174 29.2499 12.9174 26.4106V21.4346C12.9174 21.4346 14.093 21.4102 14.5974 23.0603L14.8252 21.998C14.4737 23.8656 13.7133 30.1991 19.2448 31.485C19.339 31.507 19.4304 31.5291 19.519 31.5516Z" fill="#F1B986"/>
<path d="M20.5208 26.7803H19.4793C18.8383 26.7803 18.3186 27.2999 18.3186 27.9409C18.3186 28.582 18.8383 29.1016 19.4793 29.1016H20.5208C21.1618 29.1016 21.6815 28.582 21.6815 27.9409C21.6815 27.2999 21.1619 26.7803 20.5208 26.7803Z" fill="#E4936B"/>
<path d="M29.9171 13.1439C29.8301 13.0165 29.6702 12.9608 29.523 13.0062C29.3757 13.0517 29.2752 13.1879 29.2752 13.3421V15.2422C29.092 14.7966 28.8733 14.2981 28.6202 13.7774C27.4513 11.3716 26.1665 9.73257 24.8017 8.90569C24.6865 8.8359 24.5417 8.83805 24.4286 8.91118C24.3155 8.9843 24.2541 9.1156 24.2706 9.24924L24.4171 10.4419C23.7664 9.55571 22.7108 8.57204 21.0697 8.11088C20.8839 8.05857 20.6907 8.1661 20.6369 8.35154L20 10.5504L19.3631 8.35154C19.3094 8.16605 19.1163 8.05866 18.9303 8.11088C17.289 8.57208 16.2334 9.55594 15.5826 10.4423L15.7292 9.24929C15.7457 9.11565 15.6843 8.98435 15.5712 8.91122C15.4582 8.8381 15.3133 8.83599 15.1981 8.90574C13.0753 10.192 11.5453 13.2319 10.7249 15.2339V13.3424C10.7249 13.1881 10.6244 13.052 10.4771 13.0065C10.3298 12.961 10.17 13.0168 10.083 13.1441C8.72033 15.1396 8 17.4766 8 19.9023C8 22.1402 8.6202 24.3236 9.79358 26.2164C10.4558 27.2847 11.2788 28.238 12.2278 29.0454V29.6696H11.8144C11.1987 29.6696 10.6977 30.1705 10.6977 30.7861C10.6977 31.4018 11.1987 31.9028 11.8144 31.9028H13.9205C14.4882 31.9028 14.9828 31.5884 15.2367 31.1208C16.0618 31.6169 17.0271 31.9028 18.058 31.9028H21.9421C22.973 31.9028 23.9383 31.6171 24.7634 31.121C25.0174 31.5885 25.5119 31.9028 26.0795 31.9028H28.1857C28.8014 31.9028 29.3023 31.4019 29.3023 30.7861C29.3023 30.1704 28.8014 29.6696 28.1857 29.6696H27.7722V29.0426C28.4876 28.4337 29.1332 27.7422 29.6878 26.9846C29.8025 26.828 29.7685 26.608 29.6118 26.4933C29.4551 26.3786 29.2351 26.4126 29.1204 26.5693C28.4782 27.4466 27.7065 28.2301 26.842 28.8899C27.2207 28.1446 27.4344 27.302 27.4344 26.4104V21.4346C27.4344 21.3407 27.3969 21.2508 27.3301 21.1847C27.2634 21.1187 27.1738 21.0813 27.0792 21.0831C27.0363 21.0835 26.2195 21.1055 25.5434 22.0402L24.7182 18.1898C24.696 18.0866 24.6286 17.9987 24.5346 17.9506C24.4406 17.9025 24.3299 17.8992 24.2332 17.9416C24.2056 17.9536 23.551 18.244 22.899 18.8098C22.481 19.1726 22.158 19.5676 21.9354 19.9847C21.6532 19.1904 21.1491 18.2282 20.2486 17.3277C20.1113 17.1904 19.8887 17.1904 19.7515 17.3277C18.851 18.2282 18.3469 19.1904 18.0647 19.9847C17.8421 19.5677 17.5191 19.1726 17.1011 18.8098C16.4491 18.244 15.7945 17.9536 15.7669 17.9416C15.6702 17.8991 15.5596 17.9024 15.4655 17.9506C15.3715 17.9986 15.3041 18.0865 15.2819 18.1898L15.0349 19.3415C14.9942 19.5314 15.1151 19.7183 15.3049 19.759C15.4948 19.7997 15.6816 19.6788 15.7224 19.489L15.872 18.7912C16.5223 19.1749 17.759 20.0866 17.7248 21.4559C17.7201 21.6444 17.865 21.8031 18.0531 21.8155C18.2413 21.8276 18.4057 21.6897 18.4258 21.5022C18.4888 20.9152 18.7679 19.4591 20 18.0872C21.2321 19.4591 21.5113 20.9152 21.5742 21.5022C21.5943 21.6897 21.7587 21.8275 21.9469 21.8155C22.1351 21.8031 22.2799 21.6444 22.2752 21.4559C22.2563 20.6985 22.6167 19.9908 23.3463 19.3526C23.6257 19.1083 23.9098 18.9202 24.1279 18.7915L25.0586 23.1335C25.0912 23.2861 25.2206 23.3988 25.3761 23.4104C25.5316 23.4219 25.6763 23.3297 25.7313 23.1838C26.0306 22.3893 26.4397 22.0462 26.7313 21.8982V26.4105C26.7313 29.0513 24.5828 31.1997 21.942 31.1997H20.3516V29.4537H20.5207C21.3546 29.4537 22.033 28.7754 22.033 27.9415C22.033 27.1076 21.3546 26.4293 20.5207 26.4293H19.4792C18.6454 26.4293 17.967 27.1076 17.967 27.9415C17.967 28.7754 18.6454 29.4537 19.4792 29.4537H19.6484V31.1997H18.0579C15.4171 31.1997 13.2687 29.0513 13.2687 26.4105V21.8694C13.5725 21.9984 14.0059 22.3267 14.2614 23.1626C14.3082 23.3158 14.4535 23.418 14.6127 23.4111C14.7727 23.4043 14.9078 23.2901 14.9414 23.1335L15.449 20.764C15.4897 20.5741 15.3688 20.3873 15.179 20.3466C14.989 20.3058 14.8022 20.4268 14.7615 20.6167L14.4688 21.9829C13.8202 21.0772 12.9565 21.0828 12.9097 21.0832C12.7185 21.0872 12.5656 21.2434 12.5656 21.4347V26.4105C12.5656 27.303 12.7798 28.1462 13.1592 28.8921C12.0634 28.0572 11.1229 27.0263 10.3911 25.846C9.28686 24.0645 8.70312 22.0092 8.70312 19.9023C8.70312 18.0358 9.15608 16.2252 10.0218 14.6005V17.2246C10.0218 17.3988 10.1494 17.5467 10.3216 17.5723C10.4937 17.5979 10.659 17.4936 10.7097 17.327C10.7143 17.3119 11.179 15.7974 12.0168 14.0753C12.922 12.2145 13.9193 10.8107 14.9333 9.96122L14.6535 12.2392C14.6531 12.2417 14.6533 12.2442 14.6529 12.2468C14.6516 12.2575 14.6508 12.2683 14.6504 12.2791C14.6503 12.2833 14.6495 12.2876 14.6495 12.2918C14.6495 12.486 14.8069 12.6434 15.001 12.6434C15.1641 12.6434 15.3012 12.5322 15.341 12.3816C15.3991 12.1925 16.1833 9.79669 18.7877 8.89219L19.6623 11.912C19.7059 12.0623 19.8435 12.1658 20 12.1658C20.1565 12.1658 20.2941 12.0623 20.3377 11.912L21.2123 8.89219C23.816 9.79651 24.6005 12.1914 24.6591 12.3817C24.6596 12.3834 24.6604 12.385 24.6609 12.3867C24.6654 12.4026 24.6707 12.4181 24.6773 12.4329C24.6799 12.4387 24.683 12.4441 24.6858 12.4498C24.6899 12.4578 24.6943 12.4658 24.6991 12.4734C24.7619 12.5769 24.8746 12.6423 24.9979 12.6423C25.0215 12.6423 25.0456 12.6399 25.0696 12.635C25.2264 12.6027 25.3367 12.4699 25.3488 12.3177V12.3176C25.3497 12.3061 25.35 12.2946 25.3498 12.2829C25.3498 12.282 25.3497 12.2811 25.3497 12.2802C25.3494 12.2694 25.3486 12.2587 25.3473 12.2478C25.3473 12.2473 25.3473 12.2469 25.3472 12.2465L25.0662 9.95958C27.6893 12.1478 29.2735 17.2716 29.2904 17.3271C29.3412 17.4938 29.5062 17.5981 29.6785 17.5725C29.8507 17.5468 29.9783 17.3989 29.9783 17.2248V14.6006C30.844 16.2256 31.2969 18.0361 31.2969 19.9023C31.2969 21.8716 30.7829 23.8097 29.8106 25.5072C29.714 25.6757 29.7724 25.8905 29.9409 25.987C29.996 26.0186 30.056 26.0336 30.1153 26.0336C30.2372 26.0336 30.3557 25.9701 30.4207 25.8567C31.4539 24.053 32 21.9939 32 19.9023C32 17.4769 31.2797 15.1399 29.9171 13.1439ZM27.4206 30.3727H28.1856C28.4136 30.3727 28.5991 30.5582 28.5991 30.7861C28.5991 31.0141 28.4136 31.1996 28.1856 31.1996H26.0795C25.7511 31.1996 25.4694 31.0012 25.3485 30.7156C25.421 30.6581 25.492 30.5988 25.5615 30.5378C26.0861 30.2628 26.5901 29.9476 27.069 29.5974V30.0211C27.069 30.2153 27.2264 30.3727 27.4206 30.3727ZM18.6701 27.9414C18.6701 27.4953 19.0331 27.1323 19.4792 27.1323H20.5207C20.9669 27.1323 21.3298 27.4953 21.3298 27.9414C21.3298 28.3876 20.9669 28.7506 20.5207 28.7506H19.4792C19.0331 28.7506 18.6701 28.3876 18.6701 27.9414ZM13.9205 31.1996H11.8144C11.5864 31.1996 11.4009 31.0141 11.4009 30.7861C11.4009 30.5581 11.5864 30.3727 11.8144 30.3727H12.5794C12.7736 30.3727 12.931 30.2153 12.931 30.0211V29.6003C13.4086 29.9489 13.9128 30.2627 14.4398 30.5388C14.5089 30.5994 14.5795 30.6582 14.6515 30.7154C14.5307 31.0011 14.2489 31.1996 13.9205 31.1996Z" fill="black"/>
<path d="M14.9248 25.6731C14.9248 26.5509 15.4027 27.2651 15.9901 27.2651C16.5775 27.2651 17.0553 26.5509 17.0553 25.6731C17.0553 24.7952 16.5775 24.0811 15.9901 24.0811C15.4027 24.0811 14.9248 24.7952 14.9248 25.6731Z" fill="black"/>
<path d="M25.0753 25.6731C25.0753 24.7952 24.5975 24.0811 24.0101 24.0811C23.4227 24.0811 22.9448 24.7952 22.9448 25.6731C22.9448 26.5509 23.4227 27.2651 24.0101 27.2651C24.5975 27.2651 25.0753 26.5509 25.0753 25.6731Z" fill="black"/>
</g>
<defs>
<clipPath id="clip0_92_4108">
<rect width="24" height="24" fill="white" transform="translate(8 8)"/>
</clipPath>
</defs>
</svg>
