<svg width="40" height="40" viewBox="0 0 40 40" fill="none" xmlns="http://www.w3.org/2000/svg">
<circle cx="20" cy="20" r="20" fill="#FFF5E0"/>
<g clip-path="url(#clip0_92_3936)">
<path d="M23.6054 11.9771C22.6638 13.8674 23.1442 16.0194 24.6785 16.7838C26.2128 17.5481 28.22 16.6353 29.1617 14.745C30.1033 12.8547 29.6229 10.7027 28.0886 9.93834C26.5543 9.17401 24.5471 10.0868 23.6054 11.9771Z" fill="#EBAF4B"/>
<path d="M25.6974 11.8241C26.1733 10.8688 26.9216 10.1644 27.7432 9.79883C27.8606 9.8372 27.9767 9.88163 28.0896 9.93787C29.6239 10.7023 30.1041 12.8542 29.1624 14.7444C28.6865 15.6997 27.9382 16.4041 27.1166 16.7697C26.9992 16.7313 26.8831 16.6869 26.7702 16.6306C25.2359 15.8663 24.7556 13.7143 25.6974 11.8241Z" fill="#FF8087"/>
<path d="M16.4182 11.9764C15.4765 10.0861 13.4693 9.17332 11.935 9.93764C10.4007 10.702 9.9203 12.854 10.862 14.7443C11.8036 16.6346 13.8108 17.5474 15.3451 16.7831C16.8794 16.0187 17.3598 13.8667 16.4182 11.9764Z" fill="#EBAF4B"/>
<path d="M14.3271 11.8241C13.8512 10.8689 13.1029 10.1645 12.2813 9.79883C12.1639 9.8372 12.0478 9.88163 11.9349 9.93788C10.4006 10.7023 9.92032 12.8543 10.8621 14.7445C11.338 15.6997 12.0863 16.4041 12.9079 16.7697C13.0253 16.7314 13.1414 16.6869 13.2543 16.6307C14.7886 15.8663 15.2689 13.7143 14.3271 11.8241Z" fill="#FF8087"/>
<path d="M20 30.1889C20.7976 30.1889 21.5952 30.2261 22.3888 30.3005C22.816 30.3405 23.2535 30.3449 23.6986 30.3104C27.4363 30.0208 30.4507 26.9438 30.6648 23.201C30.7738 21.2967 30.1784 19.5349 29.1157 18.1502C28.2862 17.0693 27.5191 15.934 26.995 14.6763C25.8538 11.9373 23.1525 10.0117 19.9999 10.0117C16.8473 10.0117 14.146 11.9373 13.0047 14.6763C12.4807 15.934 11.7136 17.0693 10.884 18.1502C9.82143 19.5349 9.22605 21.2967 9.33502 23.201C9.54918 26.9438 12.5635 30.0208 16.3012 30.3104C16.7464 30.3449 17.1839 30.3405 17.6111 30.3005C18.4047 30.2261 19.2022 30.1889 20 30.1889Z" fill="#FFC850"/>
<path d="M12.4785 24.1684C12.1591 22.157 12.5784 20.223 13.5187 18.6401C14.2528 17.4046 14.9167 16.1178 15.3178 14.7266C15.8787 12.7808 17.1395 11.1272 18.8256 10.1025C16.188 10.5131 14.0014 12.2842 13.0048 14.6761C12.4807 15.9338 11.7136 17.0691 10.8841 18.15C9.82143 19.5347 9.22605 21.2965 9.33502 23.2008C9.54918 26.9436 12.5635 30.0207 16.3012 30.3102C16.5966 30.3331 16.887 30.3328 17.1749 30.3224C14.7671 29.2476 12.922 26.9612 12.4785 24.1684Z" fill="#EBAF4B"/>
<path d="M24.8222 23.3585C22.332 24.0289 20.9609 22.45 21.1339 20.9187C21.3348 19.1391 19.3686 18.9525 19.0098 20.4164C18.4589 22.664 17.5924 23.5133 14.3814 23.2508C11.4356 23.01 10.1667 26.0053 11.7633 28.2997C12.9806 29.4301 14.56 30.1752 16.3013 30.3102C16.7464 30.3446 17.184 30.3402 17.6111 30.3002C18.4047 30.2258 19.2024 30.1886 20.0001 30.1886C20.7977 30.1886 21.5953 30.2258 22.3889 30.3002C22.816 30.3403 23.2536 30.3447 23.6987 30.3102C25.7553 30.1508 27.5895 29.1445 28.8622 27.6508C30.3559 24.9941 28.02 22.4976 24.8222 23.3585Z" fill="#FAEBC8"/>
<path d="M20.0001 24.1338C21.1415 24.1338 22.0668 24.7506 22.0668 25.5116C22.0668 26.2454 21.1982 26.6318 20.5713 26.9175C20.208 27.0831 19.7922 27.0831 19.4288 26.9175C18.8019 26.6318 17.9333 26.2454 17.9333 25.5116C17.9334 24.7506 18.8587 24.1338 20.0001 24.1338Z" fill="#FF96A0"/>
<path d="M16.3835 22.0667C15.7205 22.0667 15.178 21.5243 15.178 20.8612V20.1723C15.178 19.5093 15.7205 18.9668 16.3835 18.9668C17.0466 18.9668 17.589 19.5093 17.589 20.1723V20.8612C17.589 21.5243 17.0466 22.0667 16.3835 22.0667Z" fill="#4B3F4E"/>
<path d="M16.3834 18.9668C16.3244 18.9668 16.2679 18.976 16.2112 18.9843V20.689C16.2112 21.0695 16.5196 21.3779 16.9001 21.3779C17.2805 21.3779 17.5889 21.0695 17.5889 20.689V20.1724C17.5889 19.5093 17.0465 18.9668 16.3834 18.9668Z" fill="#5D5360"/>
<path d="M16.3832 20.3445C16.6684 20.3445 16.8997 20.1133 16.8997 19.828C16.8997 19.5428 16.6684 19.3115 16.3832 19.3115C16.0979 19.3115 15.8667 19.5428 15.8667 19.828C15.8667 20.1133 16.0979 20.3445 16.3832 20.3445Z" fill="white"/>
<path d="M23.6168 22.0667C22.9537 22.0667 22.4113 21.5243 22.4113 20.8612V20.1723C22.4113 19.5093 22.9537 18.9668 23.6168 18.9668C24.2798 18.9668 24.8223 19.5093 24.8223 20.1723V20.8612C24.8224 21.5243 24.2798 22.0667 23.6168 22.0667Z" fill="#4B3F4E"/>
<path d="M23.6164 18.9668C23.5575 18.9668 23.5009 18.976 23.4442 18.9843V20.689C23.4442 21.0695 23.7526 21.3779 24.1331 21.3779C24.5136 21.3779 24.822 21.0695 24.822 20.689V20.1724C24.822 19.5093 24.2795 18.9668 23.6164 18.9668Z" fill="#5D5360"/>
<path d="M23.6166 20.3445C23.9018 20.3445 24.1331 20.1133 24.1331 19.828C24.1331 19.5428 23.9018 19.3115 23.6166 19.3115C23.3313 19.3115 23.1001 19.5428 23.1001 19.828C23.1001 20.1133 23.3313 20.3445 23.6166 20.3445Z" fill="white"/>
<path d="M20.4622 26.7421C19.8353 26.4037 18.9668 25.946 18.9668 25.0768C18.9668 24.7632 19.0807 24.4713 19.2749 24.2227C18.4917 24.4186 17.9333 24.9209 17.9333 25.5115C17.9333 26.2453 18.8019 26.6317 19.4288 26.9174C19.7921 27.083 20.2079 27.083 20.5713 26.9174C20.6217 26.8945 20.674 26.8706 20.7269 26.8462C20.6368 26.8218 20.5478 26.7884 20.4622 26.7421Z" fill="#FF8087"/>
<path d="M12.4785 24.1686C12.452 24.0018 12.4382 23.8365 12.4217 23.6709C10.9688 24.5504 10.5889 26.6125 11.7632 28.3C12.9805 29.4303 14.5599 30.1755 16.3012 30.3104C16.5965 30.3332 16.887 30.333 17.1749 30.3226C14.7671 29.2477 12.922 26.9613 12.4785 24.1686Z" fill="#F5DCB4"/>
<path d="M19.2715 27.2L19.295 27.2107C19.519 27.3128 19.7595 27.3639 19.9999 27.3639C20.2404 27.3639 20.4809 27.3128 20.7048 27.2107L20.7284 27.2C21.3896 26.8988 22.3889 26.4435 22.3889 25.5116C22.3889 24.5583 21.3395 23.8115 19.9999 23.8115C18.6603 23.8115 17.611 24.5583 17.611 25.5116C17.611 26.4436 18.6103 26.8988 19.2715 27.2ZM20 24.4561C20.9456 24.4561 21.7444 24.9395 21.7444 25.5116C21.7444 26.029 21.0028 26.3668 20.4613 26.6135L20.4376 26.6243C20.1595 26.7511 19.8405 26.7511 19.5624 26.6243L19.5387 26.6135C18.9972 26.3668 18.2555 26.029 18.2555 25.5116C18.2555 24.9395 19.0544 24.4561 20 24.4561Z" fill="black"/>
<path d="M22.947 27.6637C22.8038 27.5579 22.6021 27.5882 22.4963 27.7313C22.238 28.0809 21.8039 28.2895 21.3352 28.2895C21.0663 28.2895 20.8051 28.2199 20.5799 28.0883C20.2221 27.8792 19.7777 27.8792 19.4199 28.0883C19.1947 28.2199 18.9335 28.2895 18.6646 28.2895C18.1959 28.2895 17.7619 28.0809 17.5035 27.7314C17.3978 27.5883 17.1959 27.5581 17.0528 27.6638C16.9097 27.7696 16.8795 27.9715 16.9853 28.1145C17.3646 28.6277 17.9924 28.9341 18.6646 28.9341C19.0477 28.9341 19.4213 28.834 19.7451 28.6447C19.9023 28.5528 20.0975 28.5529 20.2546 28.6447C20.5784 28.834 20.952 28.9341 21.3351 28.9341C22.0074 28.9341 22.6352 28.6276 23.0146 28.1144C23.1204 27.9712 23.0901 27.7695 22.947 27.6637Z" fill="black"/>
<path d="M15.5037 25.8785C15.4249 25.883 13.5573 25.9967 12.059 26.6357C11.8953 26.7055 11.8191 26.8949 11.889 27.0586C11.9412 27.181 12.0603 27.2545 12.1855 27.2545C12.2277 27.2545 12.2706 27.2462 12.3118 27.2286C13.7027 26.6354 15.517 26.5233 15.5406 26.522C15.7183 26.5117 15.8541 26.3594 15.8439 26.1817C15.8337 26.004 15.681 25.8682 15.5037 25.8785Z" fill="black"/>
<path d="M24.1558 26.1816C24.1456 26.3592 24.2812 26.5116 24.4589 26.5219C24.4771 26.523 26.2948 26.6345 27.6878 27.2286C27.7291 27.2462 27.7719 27.2545 27.8141 27.2545C27.9393 27.2545 28.0585 27.1811 28.1107 27.0586C28.1805 26.8948 28.1044 26.7055 27.9406 26.6357C26.4422 25.9967 24.5747 25.883 24.496 25.8785C24.3188 25.8684 24.1661 26.004 24.1558 26.1816Z" fill="black"/>
<path d="M30.7915 25.2098C30.7372 25.1893 30.6819 25.1696 30.626 25.1503C30.8265 24.5272 30.949 23.8789 30.9868 23.2192C31.0953 21.3223 30.5217 19.4524 29.3716 17.9538C29.0309 17.5099 28.6464 16.9885 28.2771 16.4079C28.9078 15.9081 29.4061 15.2048 29.6938 14.3988C30.0481 13.4066 30.0588 12.356 29.7239 11.4405C29.3814 10.504 28.7203 9.81951 27.8624 9.51323C26.5498 9.04457 25.0594 9.56944 24.0741 10.8211C23.9279 10.7327 23.7793 10.6486 23.6278 10.5701C22.5156 9.9938 21.2611 9.68923 20.0001 9.68923C18.5278 9.68923 17.1272 10.0937 15.9237 10.818C14.9384 9.56853 13.4493 9.04505 12.1378 9.51323C11.2799 9.81956 10.6188 10.504 10.2763 11.4405C9.94145 12.356 9.95214 13.4066 10.3064 14.3988C10.5942 15.2048 11.0924 15.9081 11.7231 16.4079C11.3538 16.9884 10.9693 17.5098 10.6286 17.9538C9.47859 19.4524 8.90495 21.3224 9.01349 23.2192C9.05122 23.8789 9.17377 24.5272 9.37421 25.1503C9.3184 25.1696 9.26301 25.1893 9.20874 25.2098C9.04224 25.2726 8.95815 25.4585 9.02093 25.6251C9.06961 25.7542 9.19224 25.8337 9.32252 25.8337C9.36029 25.8337 9.39875 25.827 9.43622 25.8129C9.48873 25.7931 9.54244 25.7741 9.59671 25.7554C9.98192 26.6832 10.546 27.5404 11.2668 28.2761C12.612 29.649 14.3911 30.4855 16.2765 30.6316C16.7321 30.6669 17.1913 30.6634 17.6414 30.6212C19.2066 30.4745 20.7938 30.4745 22.359 30.6212C22.6042 30.6442 22.852 30.6557 23.1005 30.6557C23.3082 30.6557 23.5164 30.6477 23.7238 30.6316C25.6092 30.4855 27.3883 29.649 28.7335 28.2761C29.4543 27.5404 30.0184 26.6832 30.4036 25.7554C30.4579 25.7741 30.5116 25.7931 30.5641 25.8129C30.6015 25.827 30.64 25.8337 30.6778 25.8337C30.808 25.8337 30.9306 25.7542 30.9794 25.6251C31.0421 25.4585 30.958 25.2726 30.7915 25.2098ZM26.7002 9.99607C26.6455 10.0296 26.591 10.0647 26.537 10.1033C26.0115 10.4791 25.5804 11.0598 25.314 11.7464C25.0915 11.5439 24.8576 11.3541 24.6139 11.1781C25.1855 10.4729 25.942 10.054 26.7002 9.99607ZM15.3831 11.1741C15.1398 11.3493 14.9065 11.5387 14.6842 11.741C14.4178 11.0568 13.9875 10.4782 13.4632 10.1033C13.4093 10.0647 13.3548 10.0296 13.3001 9.99612C14.0569 10.054 14.812 10.4714 15.3831 11.1741ZM10.9134 14.1821C10.6097 13.3314 10.5984 12.4364 10.8816 11.6619C11.0782 11.1244 11.4013 10.6925 11.8148 10.4012C11.8377 10.391 11.8612 10.3815 11.8848 10.3731C12.6679 10.0934 13.6914 10.8709 14.1198 12.0706C14.1405 12.1288 14.1596 12.1876 14.1773 12.2466C13.569 12.9109 13.0682 13.6866 12.7075 14.5521C12.5184 15.0059 12.2964 15.4404 12.0598 15.8516C11.5529 15.4299 11.1511 14.8478 10.9134 14.1821ZM28.2731 27.8249C27.0372 29.0864 25.4038 29.8549 23.674 29.9889C23.2549 30.0214 22.8327 30.0182 22.4191 29.9794C20.814 29.8289 19.1863 29.8289 17.5812 29.9794C17.1676 30.0182 16.7454 30.0214 16.3263 29.9889C14.5965 29.8549 12.9631 29.0864 11.7272 27.8249C11.0812 27.1656 10.5724 26.4004 10.2193 25.5728C12.6151 24.976 15.9797 25.1934 16.0173 25.1959C16.1954 25.2077 16.3486 25.0736 16.3606 24.8961C16.3726 24.7185 16.2384 24.5648 16.0608 24.5528C15.9015 24.542 12.4881 24.3213 9.99185 24.9653C9.80562 24.3901 9.69184 23.7914 9.65699 23.1824C9.5573 21.4397 10.084 19.7222 11.14 18.3461C11.8377 17.4371 12.7139 16.2126 13.3025 14.8C14.433 12.0868 17.062 10.3337 20.0002 10.3337C21.1751 10.3337 22.2959 10.6058 23.3314 11.1424C24.3196 11.6544 25.191 12.4008 25.8512 13.3007C25.9565 13.4442 26.1582 13.4752 26.3017 13.3699C26.4452 13.2646 26.4762 13.0629 26.3709 12.9195C26.2004 12.6871 26.0166 12.4645 25.8216 12.2521C25.8398 12.1913 25.8592 12.1306 25.8807 12.0707C26.3091 10.8709 27.3325 10.0934 28.1156 10.3732C28.1392 10.3816 28.1627 10.3911 28.1856 10.4013C28.5991 10.6926 28.9222 11.1244 29.1188 11.6619C29.4021 12.4364 29.3908 13.3314 29.087 14.1821C28.8494 14.8478 28.4475 15.4299 27.9405 15.8516C27.704 15.4405 27.482 15.006 27.2929 14.5522C27.2368 14.4176 27.1762 14.2828 27.1127 14.1516C27.0351 13.9914 26.8423 13.9244 26.6822 14.0019C26.5219 14.0794 26.4549 14.2722 26.5325 14.4324C26.5908 14.5529 26.6465 14.6766 26.698 14.8001C27.2866 16.2127 28.1628 17.4373 28.8605 18.3463C29.9165 19.7223 30.4432 21.4399 30.3435 23.1825C30.3086 23.7916 30.1949 24.3902 30.0086 24.9654C27.5124 24.3214 24.099 24.5422 23.9396 24.5529C23.7621 24.565 23.6279 24.7186 23.6399 24.8962C23.6519 25.0738 23.8058 25.2077 23.9832 25.196C24.0208 25.1935 27.3853 24.9761 29.7812 25.5729C29.4279 26.4004 28.9191 27.1657 28.2731 27.8249Z" fill="black"/>
<path d="M17.9112 20.8613V20.1724C17.9112 19.9433 17.8616 19.7228 17.7639 19.5171C17.6875 19.3564 17.4952 19.288 17.3345 19.3644C17.1738 19.4408 17.1054 19.6331 17.1818 19.7938C17.2381 19.9124 17.2667 20.0397 17.2667 20.1723V20.8612C17.2667 21.3482 16.8704 21.7445 16.3834 21.7445C15.8964 21.7445 15.5001 21.3482 15.5001 20.8612V20.1723C15.5001 19.6853 15.8964 19.2891 16.3834 19.2891C16.5614 19.2891 16.7057 19.1448 16.7057 18.9668C16.7057 18.7888 16.5614 18.6445 16.3834 18.6445C15.5409 18.6445 14.8556 19.3299 14.8556 20.1723V20.8612C14.8556 21.7037 15.5409 22.389 16.3834 22.389C17.2258 22.389 17.9112 21.7037 17.9112 20.8613Z" fill="black"/>
<path d="M25.1446 20.8613V20.1724C25.1446 19.9432 25.0951 19.7228 24.9973 19.5171C24.9209 19.3564 24.7286 19.288 24.5679 19.3644C24.4072 19.4408 24.3388 19.6331 24.4152 19.7938C24.4715 19.9123 24.5001 20.0397 24.5001 20.1723V20.8612C24.5001 21.3482 24.1038 21.7445 23.6168 21.7445C23.1298 21.7445 22.7335 21.3482 22.7335 20.8612V20.1723C22.7335 19.6853 23.1298 19.2891 23.6168 19.2891C23.7948 19.2891 23.9391 19.1448 23.9391 18.9668C23.9391 18.7888 23.7948 18.6445 23.6168 18.6445C22.7744 18.6445 22.089 19.3299 22.089 20.1723V20.8612C22.089 21.7037 22.7744 22.389 23.6168 22.389C24.4593 22.389 25.1446 21.7037 25.1446 20.8613Z" fill="black"/>
</g>
<defs>
<clipPath id="clip0_92_3936">
<rect width="22" height="22" fill="white" transform="translate(9 9)"/>
</clipPath>
</defs>
</svg>
