<svg width="40" height="40" viewBox="0 0 40 40" fill="none" xmlns="http://www.w3.org/2000/svg">
<circle cx="20" cy="20" r="20" fill="#F3FCDB"/>
<path d="M24.0661 22.0049C25.9552 22.6512 27.3247 23.4286 25.9704 24.6644C24.6162 25.9002 25.5934 26.3607 25.5934 26.3607L25.2861 26.9453C23.6772 27.1582 23.4925 25.2187 24.42 24.3626C25.3475 23.5064 22.3788 23.5202 22.3788 23.5202L24.0661 22.0049Z" fill="#A9CE24"/>
<path d="M20.1747 20.2484C18.4402 19.2582 16.9529 18.7453 16.9204 20.5783C16.8879 22.4113 15.8967 21.9829 15.8967 21.9829L15.6619 22.6006C16.567 23.9477 18.1439 22.8037 18.1717 21.5419C18.1995 20.2801 20.1534 22.5169 20.1534 22.5169L20.1747 20.2484Z" fill="#A9CE24"/>
<path d="M22.5903 15.0887C21.4396 13.8893 21.6506 13.6039 20.1912 14.2781C19.2485 14.7369 18.6937 13.0049 18.6937 13.0049L17.8739 13.3146C18.2873 15.1999 18.6379 15.3741 19.494 15.6884C20.3502 16.0026 21.5986 17.317 21.5986 17.317L22.5903 15.0887Z" fill="#A9CE24"/>
<path d="M25.7624 16.5215C27.4231 16.5916 27.4977 16.2444 27.9561 17.7851C28.2352 18.7957 29.9012 18.0665 29.9012 18.0665L30.211 18.8863C28.5234 19.8229 28.1609 19.675 27.3589 19.2405C26.557 18.806 24.7457 18.7388 24.7457 18.7388L25.7624 16.5215Z" fill="#A9CE24"/>
<path d="M28.4802 13.0092C29.2982 11.7952 28.8255 9.81652 28.0892 8.82628C27.9503 8.64264 27.7644 8.50002 27.551 8.41358C27.3376 8.32714 27.1048 8.3001 26.8773 8.33533C25.2863 8.57908 24.4104 9.16225 23.8038 10.1121C22.8104 11.8734 24.1471 13.2434 23.1081 14.1323C18.0312 16.7016 18.9356 23.0333 19.6343 24.5368C19.6579 25.8924 17.5744 29.0665 15.3731 30.0532C13.1719 31.04 9.63588 29.4404 8.4021 29.1292C8.61802 29.6977 9.02594 30.1729 9.55524 30.4723C12.1075 31.9206 14.7849 31.9659 16.4914 31.1394C19.1448 29.854 20.1982 27.5128 21.1604 25.2323C28.1751 21.7485 26.5229 17.2698 26.7632 15.5822C26.8771 14.7858 27.4343 14.5623 28.4802 13.0092Z" fill="#BAE543"/>
<path d="M28.5173 12.4586C28.8537 12.4586 29.1264 12.1858 29.1264 11.8494C29.1264 11.513 28.8537 11.2402 28.5173 11.2402C28.1808 11.2402 27.9081 11.513 27.9081 11.8494C27.9081 12.1858 28.1808 12.4586 28.5173 12.4586Z" fill="#A9CE24"/>
<path d="M24.2753 10.7877C24.6117 10.7877 24.8845 10.5149 24.8845 10.1785C24.8845 9.84207 24.6117 9.56934 24.2753 9.56934C23.9389 9.56934 23.6661 9.84207 23.6661 10.1785C23.6661 10.5149 23.9389 10.7877 24.2753 10.7877Z" fill="#A9CE24"/>
<path d="M31.6363 18.687L30.7832 18.5919L31.3474 18.3788C31.4356 18.3455 31.507 18.2786 31.5459 18.1926C31.5847 18.1067 31.5878 18.0089 31.5545 17.9207C31.5212 17.8325 31.4543 17.7611 31.3683 17.7222C31.2824 17.6834 31.1846 17.6803 31.0964 17.7136L30.4147 17.9711L31.0665 17.0888C31.0952 17.0513 31.1161 17.0085 31.1281 16.9628C31.14 16.9172 31.1428 16.8696 31.1362 16.8229C31.1295 16.7762 31.1137 16.7312 31.0895 16.6907C31.0653 16.6502 31.0333 16.6149 30.9954 16.5868C30.9574 16.5588 30.9143 16.5386 30.8684 16.5274C30.8226 16.5162 30.775 16.5143 30.7284 16.5217C30.6818 16.5291 30.6371 16.5457 30.597 16.5706C30.5569 16.5955 30.5221 16.628 30.4947 16.6665L29.6767 17.7739C29.3294 17.9094 28.7612 18.0463 28.4716 17.9084C28.427 17.8869 28.388 17.8553 28.3578 17.816C28.3276 17.7768 28.3069 17.7311 28.2975 17.6825C27.9875 16.6417 27.781 16.2779 27.0956 16.1952C27.0884 16.0074 27.0951 15.8194 27.1159 15.6326C27.1698 15.2564 27.3438 15.0476 27.7253 14.5895C28.1004 14.1488 28.4509 13.6877 28.7751 13.2083C28.8927 13.032 28.989 12.8425 29.0621 12.6436C29.1733 12.5692 29.2676 12.4721 29.3387 12.3587C29.4098 12.2453 29.4562 12.1182 29.4747 11.9856C29.4933 11.8531 29.4836 11.7181 29.4464 11.5895C29.4092 11.461 29.3452 11.3417 29.2587 11.2396C29.2164 10.2992 28.9098 9.38983 28.3741 8.61582C28.1979 8.3794 27.9605 8.19555 27.6874 8.08408C27.4144 7.97262 27.1162 7.93777 26.8249 7.98329C26.7251 7.99832 26.6288 8.01477 26.5346 8.03265C26.4881 8.04061 26.4436 8.05775 26.4038 8.08307C26.364 8.10839 26.3297 8.14138 26.3027 8.18012C26.2758 8.21886 26.2569 8.26257 26.247 8.3087C26.2371 8.35484 26.2365 8.40247 26.2453 8.44884C26.254 8.4952 26.2719 8.53936 26.2979 8.57874C26.3238 8.61812 26.3574 8.65194 26.3966 8.67822C26.4358 8.7045 26.4798 8.72272 26.5261 8.73181C26.5724 8.74091 26.62 8.7407 26.6662 8.73119C26.7521 8.71494 26.8407 8.69991 26.9303 8.6861C27.0941 8.6612 27.2616 8.68079 27.4153 8.74282C27.5689 8.80486 27.7031 8.90706 27.8037 9.03873C28.183 9.59013 28.4263 10.2236 28.5134 10.8872C28.3575 10.8867 28.2038 10.9242 28.0657 10.9964C27.9276 11.0687 27.8091 11.1736 27.7206 11.3019C27.6321 11.4303 27.5763 11.5783 27.5579 11.7331C27.5395 11.8879 27.5591 12.0449 27.615 12.1904C27.6658 12.3242 27.7458 12.4451 27.8492 12.5441C27.9526 12.6431 28.0767 12.7178 28.2126 12.7628C28.2031 12.7779 28.196 12.7949 28.186 12.8097C27.8755 13.2695 27.5395 13.7116 27.1797 14.1339C26.7672 14.6289 26.4948 14.9558 26.4123 15.5318C26.3755 15.9167 26.3712 16.304 26.3993 16.6896C26.4785 18.7243 26.6108 22.1295 21.0039 24.9142C20.9278 24.9521 20.8677 25.016 20.8345 25.0943C20.5501 25.7659 20.2454 26.4776 19.8946 27.1459C19.873 27.1872 19.8596 27.2325 19.8554 27.2789C19.8512 27.3254 19.8562 27.3723 19.8702 27.4169C19.8841 27.4614 19.9066 27.5028 19.9365 27.5387C19.9664 27.5745 20.0031 27.6041 20.0444 27.6258C20.0858 27.6475 20.131 27.6608 20.1775 27.665C20.224 27.6692 20.2708 27.6642 20.3154 27.6503C20.36 27.6364 20.4014 27.6138 20.4372 27.5839C20.473 27.554 20.5027 27.5173 20.5243 27.476C20.8658 26.8248 21.1632 26.1423 21.4384 25.4927C22.2841 25.0724 23.0879 24.5727 23.8389 24.0001C23.9562 24.0219 24.071 24.0551 24.1818 24.0992L24.179 24.1019C23.8624 24.3986 23.6442 24.785 23.5534 25.2092C23.4627 25.6335 23.5037 26.0753 23.6711 26.4756C23.7904 26.7372 23.9853 26.9572 24.2306 27.1071C24.476 27.257 24.7607 27.33 25.0479 27.3167C25.0569 27.3167 25.0666 27.3149 25.0755 27.3149L25.3443 27.8373C25.3885 27.9191 25.4631 27.9803 25.5519 28.0078C25.6407 28.0352 25.7368 28.0268 25.8194 27.9843C25.9021 27.9418 25.9649 27.8686 25.9942 27.7803C26.0236 27.6921 26.0172 27.5959 25.9764 27.5123L25.7836 27.1378L26.2191 27.245C26.3107 27.2676 26.4075 27.2529 26.4882 27.2041C26.569 27.1553 26.627 27.0764 26.6496 26.9848C26.6721 26.8932 26.6574 26.7964 26.6086 26.7157C26.5598 26.635 26.4809 26.577 26.3894 26.5544L26.2065 26.5093L26.6776 26.3312C26.7643 26.2968 26.8341 26.2297 26.8718 26.1444C26.9095 26.0591 26.9122 25.9624 26.8792 25.8751C26.8463 25.7879 26.7804 25.7171 26.6957 25.678C26.611 25.6389 26.5143 25.6346 26.4265 25.6661L25.6567 25.957C25.6317 25.9257 25.6154 25.8884 25.6096 25.8487C25.5968 25.7472 25.6299 25.4561 26.2082 24.9266C26.7125 24.4671 26.9303 24.0046 26.8555 23.5516C26.7755 23.0659 26.3755 22.6473 25.6092 22.2516C26.2519 21.4239 26.704 20.4644 26.9329 19.4418C27.0209 19.4722 27.1065 19.5093 27.1889 19.5527C27.6252 19.7891 27.9646 19.9376 28.3696 19.9376C28.8368 19.9376 29.3936 19.7375 30.2829 19.2514L31.5569 19.3936C31.5704 19.395 31.5839 19.3957 31.5975 19.3957C31.6882 19.3954 31.7754 19.3605 31.8412 19.298C31.9071 19.2355 31.9465 19.1502 31.9514 19.0596C31.9564 18.969 31.9265 18.8799 31.8679 18.8107C31.8093 18.7414 31.7265 18.6971 31.6363 18.687ZM28.4269 11.6125C28.4892 11.5877 28.5589 11.5887 28.6205 11.6153C28.682 11.6418 28.7306 11.6918 28.7554 11.7541C28.7801 11.8164 28.7791 11.8861 28.7526 11.9476C28.726 12.0092 28.6761 12.0578 28.6138 12.0826C28.6101 12.0842 28.6065 12.0858 28.6028 12.0878C28.5403 12.1091 28.4719 12.1051 28.4123 12.0767C28.3526 12.0483 28.3064 11.9978 28.2835 11.9358C28.2605 11.8739 28.2627 11.8054 28.2895 11.745C28.3163 11.6846 28.3656 11.6371 28.4269 11.6125ZM26.1545 23.6674C26.1952 23.9164 25.9461 24.2038 25.7294 24.4015C25.1131 24.9651 24.8357 25.4896 24.9078 25.9603C24.9354 26.1448 25.0172 26.3169 25.143 26.4547L25.1074 26.5223C25.1056 26.526 25.1036 26.5292 25.102 26.5329L25.0636 26.606C24.9096 26.6206 24.755 26.587 24.621 26.5098C24.4871 26.4326 24.3804 26.3156 24.3159 26.1752C24.2142 25.9116 24.1928 25.6239 24.2542 25.3482C24.3156 25.0725 24.4572 24.8212 24.6612 24.6257C24.9764 24.3355 24.9829 24.0738 24.9332 23.9054C24.8963 23.8032 24.8376 23.7102 24.7611 23.633C24.6846 23.5558 24.5921 23.4963 24.4901 23.4586C24.7276 23.2441 24.9437 23.0283 25.1401 22.8122C25.9159 23.1844 26.1241 23.4797 26.1545 23.6674ZM27.5283 18.9281C27.3778 18.8493 27.2203 18.7847 27.0578 18.7351C27.1279 18.131 27.1483 17.5221 27.1188 16.9147C27.3386 16.9756 27.4056 17.1802 27.6138 17.8789C27.6506 18.0247 27.7193 18.1605 27.8148 18.2766C27.9103 18.3927 28.0304 18.4862 28.1663 18.5505C28.6501 18.7806 29.2961 18.6457 29.6938 18.5212L29.7696 18.7227C28.4478 19.4259 28.196 19.2892 27.5287 18.9281H27.5283Z" fill="#072130"/>
<path d="M19.7653 28.1046C19.6869 28.0523 19.5909 28.0333 19.4984 28.0518C19.406 28.0703 19.3247 28.1247 19.2723 28.2031C19.1724 28.353 19.0704 28.4972 18.9689 28.6321C18.9408 28.6694 18.9203 28.712 18.9087 28.7572C18.897 28.8024 18.8944 28.8495 18.901 28.8958C18.9075 28.9421 18.9231 28.9866 18.9469 29.0268C18.9707 29.067 19.0021 29.1022 19.0394 29.1303C19.0768 29.1583 19.1193 29.1788 19.1645 29.1904C19.2098 29.2021 19.2569 29.2047 19.3031 29.1981C19.3494 29.1916 19.3939 29.176 19.4342 29.1522C19.4744 29.1285 19.5095 29.097 19.5376 29.0597C19.6471 28.914 19.7572 28.7587 19.8644 28.5976C19.8903 28.5587 19.9083 28.5151 19.9173 28.4693C19.9263 28.4235 19.9262 28.3763 19.917 28.3305C19.9078 28.2848 19.8897 28.2412 19.8637 28.2025C19.8376 28.1637 19.8042 28.1304 19.7653 28.1046Z" fill="#072130"/>
<path d="M18.2532 29.4597C17.6962 30.0188 17.0482 30.479 16.3367 30.8206C14.5523 31.6851 11.9592 31.4273 9.72967 30.1627C9.53523 30.0527 9.3582 29.9145 9.20439 29.7526L9.24888 29.7674C10.884 30.3142 13.6209 31.2299 15.52 30.3782C17.771 29.3678 20.018 26.1243 19.9887 24.5306C19.9877 24.481 19.9765 24.4321 19.9556 24.387C19.2973 22.9712 18.4525 16.8872 23.2665 14.4499C23.2917 14.4372 23.3153 14.4215 23.3368 14.4032C23.9955 13.8414 23.9104 13.126 23.8282 12.4341C23.748 11.9704 23.748 11.4963 23.8282 11.0326C24.0012 11.1232 24.1977 11.159 24.3915 11.1354C24.5854 11.1117 24.7675 11.0297 24.9137 10.9001C25.0598 10.7706 25.1631 10.5996 25.2099 10.41C25.2567 10.2204 25.2447 10.021 25.1755 9.83839C25.1159 9.68322 25.0168 9.54628 24.8881 9.44108C25.0412 9.32664 25.2044 9.2263 25.3756 9.14127C25.4599 9.09911 25.5241 9.02518 25.5539 8.93574C25.5837 8.8463 25.5768 8.74867 25.5346 8.66433C25.4925 8.58 25.4185 8.51586 25.3291 8.48603C25.2397 8.4562 25.142 8.46313 25.0577 8.50528C24.6782 8.69328 24.3335 8.94456 24.0384 9.24832C24.0024 9.25595 23.9669 9.26558 23.932 9.27716C23.7291 9.35432 23.5581 9.49769 23.4468 9.68406C23.3355 9.87043 23.2903 10.0889 23.3185 10.3042C22.9633 11.149 23.0488 11.9056 23.1217 12.5182C23.1997 13.1755 23.2261 13.5406 22.904 13.8367C22.6791 13.9521 22.4695 14.0766 22.2667 14.2048C21.5964 13.4532 21.3121 13.3693 20.0324 13.9598C19.9906 13.9836 19.9439 13.9974 19.8959 14.0002C19.8479 14.0029 19.7999 13.9945 19.7557 13.9756C19.4608 13.8499 19.187 13.3319 19.0598 12.982L19.3497 11.6365C19.3604 11.5905 19.3619 11.5429 19.354 11.4963C19.3461 11.4498 19.3291 11.4053 19.3038 11.3654C19.2785 11.3256 19.2456 11.2911 19.2069 11.2641C19.1682 11.2371 19.1245 11.2181 19.0784 11.2082C19.0322 11.1982 18.9846 11.1976 18.9382 11.2062C18.8918 11.2149 18.8476 11.2327 18.8082 11.2587C18.7687 11.2846 18.7349 11.3181 18.7085 11.3573C18.6822 11.3964 18.6639 11.4405 18.6548 11.4868L18.4236 12.5591L18.1661 11.8774C18.1502 11.8328 18.1256 11.7919 18.0938 11.757C18.0619 11.722 18.0234 11.6938 17.9805 11.6739C17.9376 11.6541 17.8912 11.643 17.844 11.6413C17.7967 11.6396 17.7496 11.6473 17.7054 11.664C17.6612 11.6807 17.6207 11.7061 17.5864 11.7387C17.5522 11.7712 17.5247 11.8103 17.5057 11.8535C17.4867 11.8968 17.4765 11.9435 17.4757 11.9907C17.475 12.038 17.4836 12.085 17.5012 12.1288L17.7145 12.6933L17.0785 12.1156C17.0087 12.0522 16.9166 12.0191 16.8224 12.0236C16.7282 12.0282 16.6397 12.0699 16.5763 12.1397C16.5129 12.2095 16.4798 12.3016 16.4843 12.3958C16.4888 12.49 16.5306 12.5785 16.6004 12.6419L17.5484 13.5028C17.618 13.8115 17.6865 14.0746 17.7564 14.2988C17.7844 14.3888 17.847 14.464 17.9305 14.5079C18.0139 14.5517 18.1114 14.5606 18.2014 14.5326C18.2914 14.5046 18.3666 14.442 18.4105 14.3585C18.4543 14.275 18.4632 14.1776 18.4352 14.0876C18.3854 13.9281 18.3363 13.7469 18.2861 13.5391L18.3966 13.4973H18.398H18.3993L18.4876 13.4638C18.6572 13.8448 18.9836 14.4197 19.476 14.6301C19.6127 14.6892 19.7607 14.7175 19.9096 14.7128C20.0584 14.7081 20.2044 14.6707 20.3371 14.6031C20.8087 14.3856 21.1319 14.2558 21.2877 14.2818C21.3825 14.2978 21.4965 14.4089 21.6795 14.6147C21.2208 14.9683 20.8068 15.3764 20.4467 15.83C20.1921 15.6347 19.9119 15.4753 19.6139 15.3561C19.3911 15.288 19.1791 15.1886 18.9843 15.0607C18.9086 15.0079 18.8154 14.9865 18.7243 15.0011C18.6333 15.0157 18.5514 15.0651 18.496 15.1389C18.4407 15.2127 18.4162 15.3051 18.4277 15.3967C18.4392 15.4882 18.4858 15.5717 18.5577 15.6295C18.8074 15.8007 19.0812 15.9337 19.3702 16.0242C19.6071 16.1209 19.83 16.2489 20.033 16.4048C19.4876 17.2694 19.1098 18.2288 18.9192 19.2331C18.3438 19.0127 17.6674 18.8645 17.1681 19.1777C16.7801 19.4214 16.5774 19.8898 16.5652 20.5711C16.5512 21.3574 16.3542 21.5748 16.2701 21.6316C16.2369 21.6536 16.1987 21.6667 16.159 21.6696L15.8673 20.8977C15.8508 20.8541 15.8259 20.8141 15.7939 20.7801C15.762 20.7461 15.7236 20.7187 15.6811 20.6995C15.6386 20.6803 15.5927 20.6696 15.546 20.6682C15.4994 20.6667 15.4529 20.6745 15.4092 20.691C15.3211 20.7243 15.2498 20.7913 15.211 20.8772C15.1918 20.9197 15.1812 20.9656 15.1797 21.0122C15.1782 21.0589 15.186 21.1054 15.2025 21.149L15.3804 21.6203L15.2256 21.5128C15.1482 21.4589 15.0525 21.438 14.9597 21.4547C14.8668 21.4714 14.7844 21.5242 14.7305 21.6017C14.6766 21.6791 14.6557 21.7748 14.6724 21.8676C14.6891 21.9605 14.7419 22.0429 14.8194 22.0968L15.1878 22.3527L14.7794 22.4557C14.7341 22.4671 14.6915 22.4874 14.6541 22.5153C14.6166 22.5431 14.585 22.5781 14.5611 22.6182C14.5372 22.6583 14.5214 22.7027 14.5146 22.7489C14.5079 22.7951 14.5103 22.8422 14.5217 22.8874C14.5331 22.9327 14.5534 22.9753 14.5812 23.0127C14.6091 23.0502 14.6441 23.0818 14.6842 23.1057C14.7243 23.1296 14.7687 23.1454 14.8149 23.1522C14.8611 23.1589 14.9082 23.1565 14.9534 23.1451L15.5222 23.0017C15.6578 23.173 15.8296 23.3122 16.0254 23.4092C16.2211 23.5062 16.436 23.5586 16.6544 23.5627C16.7989 23.5621 16.9425 23.5409 17.081 23.4998C17.4918 23.3606 17.8503 23.0993 18.1086 22.7508C18.3669 22.4023 18.5127 21.9833 18.5264 21.5498V21.5459C18.5971 21.5813 18.6651 21.622 18.7295 21.6678C18.7453 22.6727 18.9307 23.6677 19.278 24.6109C19.2292 25.8784 17.2705 28.8129 15.2293 29.7296C13.584 30.467 11.0116 29.6077 9.47475 29.0932C9.08252 28.962 8.7435 28.8495 8.4902 28.7849C8.4273 28.769 8.36124 28.7706 8.2992 28.7896C8.23716 28.8086 8.1815 28.8442 8.13825 28.8926C8.09499 28.9409 8.0658 29.0002 8.05383 29.064C8.04186 29.1277 8.04757 29.1935 8.07034 29.2543C8.3143 29.9011 8.77773 30.4416 9.37969 30.7814C10.7656 31.5802 12.3327 32.0114 13.9321 32.0339C14.8686 32.0491 15.7965 31.8531 16.6469 31.4604C17.4299 31.0847 18.1431 30.5784 18.7561 29.9632C18.7892 29.9302 18.8154 29.891 18.8333 29.8478C18.8513 29.8046 18.8605 29.7584 18.8605 29.7116C18.8605 29.6649 18.8514 29.6186 18.8335 29.5755C18.8157 29.5323 18.7895 29.493 18.7564 29.46C18.7234 29.4269 18.6842 29.4007 18.641 29.3828C18.5979 29.3648 18.5516 29.3556 18.5049 29.3556C18.4582 29.3556 18.4119 29.3647 18.3687 29.3826C18.3255 29.4004 18.2863 29.4266 18.2532 29.4597ZM24.5066 10.2832C24.4895 10.3213 24.4632 10.3546 24.4301 10.3801C24.397 10.4056 24.3581 10.4225 24.3169 10.4294C24.2757 10.4362 24.2335 10.4329 24.1939 10.4195C24.1543 10.4061 24.1187 10.3832 24.0901 10.3528C24.0615 10.3223 24.0408 10.2853 24.03 10.245C24.0191 10.2046 24.0183 10.1623 24.0278 10.1216C24.0372 10.0809 24.0565 10.0431 24.084 10.0117C24.1116 9.98029 24.1464 9.95613 24.1855 9.94138C24.2166 9.92941 24.2499 9.92379 24.2833 9.92484C24.3167 9.92588 24.3495 9.93358 24.3799 9.94747C24.4103 9.96122 24.4377 9.98086 24.4605 10.0053C24.4833 10.0297 24.5011 10.0584 24.5127 10.0897C24.5245 10.1207 24.53 10.1538 24.529 10.1871C24.5279 10.2203 24.5203 10.253 24.5066 10.2832ZM18.1736 20.8561C18.0162 20.9308 17.8268 21.1088 17.8165 21.5337C17.8046 21.8159 17.7095 22.0883 17.5433 22.3166C17.377 22.545 17.147 22.7191 16.8821 22.8171C16.7341 22.8624 16.5757 22.8603 16.429 22.8113C16.2822 22.7622 16.1544 22.6685 16.0635 22.5433L16.094 22.4634L16.0966 22.4569L16.1253 22.3818C16.3117 22.3869 16.4953 22.3346 16.651 22.2319C17.0509 21.9739 17.2615 21.4194 17.2764 20.5833C17.2815 20.2906 17.3324 19.913 17.5461 19.7795C17.7025 19.6812 18.048 19.6408 18.8031 19.9524C18.7651 20.2611 18.7421 20.5654 18.7316 20.8634C18.644 20.8241 18.5493 20.8032 18.4533 20.8019C18.3574 20.8007 18.2621 20.8191 18.1736 20.8561Z" fill="#072130"/>
<path d="M25.2706 19.6064C25.1831 19.5714 25.0853 19.5727 24.9986 19.6099C24.912 19.647 24.8437 19.7171 24.8087 19.8046C24.6547 20.1865 24.457 20.5494 24.2197 20.8859C24.1929 20.9241 24.1739 20.9672 24.1637 21.0128C24.1536 21.0584 24.1526 21.1055 24.1606 21.1515C24.1687 21.1974 24.1858 21.2414 24.2108 21.2808C24.2359 21.3201 24.2685 21.3542 24.3067 21.381C24.3449 21.4078 24.3881 21.4268 24.4336 21.4369C24.4792 21.447 24.5263 21.4481 24.5723 21.44C24.6183 21.4319 24.6622 21.4149 24.7016 21.3898C24.741 21.3647 24.775 21.3322 24.8018 21.294C25.0705 20.9125 25.2941 20.5012 25.4681 20.0683C25.5031 19.9809 25.5019 19.8831 25.4649 19.7965C25.4279 19.7099 25.358 19.6415 25.2706 19.6064Z" fill="#072130"/>
</svg>
