<svg width="40" height="40" viewBox="0 0 40 40" fill="none" xmlns="http://www.w3.org/2000/svg">
<circle cx="20" cy="20" r="20" fill="#FFEEE9"/>
<path d="M11.3577 21.5034C13.0179 21.5034 14.3637 20.1575 14.3637 18.4973C14.3637 16.8371 13.0179 15.4912 11.3577 15.4912C9.69744 15.4912 8.35156 16.8371 8.35156 18.4973C8.35156 20.1575 9.69744 21.5034 11.3577 21.5034Z" fill="#965A50"/>
<path d="M11.3576 20.3757C12.3952 20.3757 13.2364 19.5345 13.2364 18.4969C13.2364 17.4593 12.3952 16.6182 11.3576 16.6182C10.32 16.6182 9.47888 17.4593 9.47888 18.4969C9.47888 19.5345 10.32 20.3757 11.3576 20.3757Z" fill="#EBC9A0"/>
<path d="M28.6421 21.5034C30.3023 21.5034 31.6482 20.1575 31.6482 18.4973C31.6482 16.8371 30.3023 15.4912 28.6421 15.4912C26.9819 15.4912 25.636 16.8371 25.636 18.4973C25.636 20.1575 26.9819 21.5034 28.6421 21.5034Z" fill="#965A50"/>
<path d="M28.6423 20.3757C29.6799 20.3757 30.521 19.5345 30.521 18.4969C30.521 17.4593 29.6799 16.6182 28.6423 16.6182C27.6047 16.6182 26.7635 17.4593 26.7635 18.4969C26.7635 19.5345 27.6047 20.3757 28.6423 20.3757Z" fill="#EBC9A0"/>
<path d="M28.4902 20.2755C28.1095 19.6187 27.8909 18.8807 27.8909 18.1215C27.8909 14.8284 25.8723 12.0093 23.0061 10.8267V9.47909L21.1273 10.2306L20.7515 8.72754C19.7605 9.05791 18.915 9.75124 18.2782 10.4247C14.7494 11.2111 12.1092 14.3556 12.1092 18.1215C12.1092 18.8807 11.8907 19.6187 11.51 20.2755C10.9312 21.2742 10.6062 22.3906 10.6062 23.5699C10.6062 27.8242 14.812 31.273 20.0001 31.273C25.1882 31.273 29.394 27.8242 29.394 23.5699C29.394 22.3906 29.069 21.2742 28.4902 20.2755Z" fill="#AF6E5A"/>
<path d="M14.7394 24.9164C14.7394 23.5404 15.0645 22.238 15.6432 21.0729C16.0239 20.3066 16.2425 19.4456 16.2425 18.5598C16.2425 14.7361 18.2431 11.4635 21.0881 10.0736L20.7516 8.72754C19.7605 9.05791 18.9151 9.75124 18.2783 10.4247C14.7493 11.2111 12.1091 14.3555 12.1091 18.1214C12.1091 18.8806 11.8906 19.6186 11.5099 20.2755C10.9311 21.2741 10.6061 22.3905 10.6061 23.5699C10.6061 27.0037 13.3467 29.9115 17.1317 30.9058C15.6447 29.316 14.7394 27.2177 14.7394 24.9164Z" fill="#965A50"/>
<path d="M19.9999 29.7694C23.1128 29.7694 25.6363 27.7506 25.6363 25.2603C25.6363 24.7437 25.5264 24.2482 25.3253 23.7867C25.0337 23.1175 25.1329 22.3494 25.6015 21.7897C26.1991 21.0757 26.5074 20.1117 26.3447 19.0762C26.1212 17.6538 24.9713 16.506 23.5487 16.2845C22.4616 16.1153 21.4539 16.4651 20.732 17.1235C20.5268 17.3107 20.2633 17.4043 20.0001 17.4043C19.7366 17.4043 19.4731 17.3107 19.2679 17.1235C18.546 16.4651 17.5384 16.1153 16.4513 16.2845C15.0286 16.506 13.8787 17.6538 13.6553 19.0762C13.4927 20.1117 13.8009 21.0757 14.3985 21.7897C14.867 22.3494 14.9663 23.1175 14.6747 23.7867C14.4735 24.2482 14.3637 24.7437 14.3637 25.2603C14.3636 27.7507 16.8871 29.7694 19.9999 29.7694Z" fill="#FAEBC8"/>
<path d="M14.3636 25.261C14.3636 26.1038 14.6579 26.8897 15.161 27.5645C14.8908 26.7268 14.7394 25.8393 14.7394 24.9166C14.7394 23.5406 15.0644 22.2382 15.6432 21.073C16.0239 20.3067 16.2424 19.4457 16.2424 18.56C16.2424 17.7725 16.3316 17.0104 16.4912 16.2812C16.4778 16.2832 16.4647 16.2831 16.4513 16.2852C15.0286 16.5066 13.8788 17.6545 13.6553 19.0768C13.4926 20.1123 13.8009 21.0763 14.3985 21.7903C14.8671 22.3501 14.9664 23.1181 14.6747 23.7873C14.4735 24.2489 14.3636 24.7444 14.3636 25.261Z" fill="#F5DCB4"/>
<path d="M16.2426 24.8848C16.2426 26.7525 17.9248 28.2666 20.0001 28.2666C22.0753 28.2666 23.7576 26.7525 23.7576 24.8848H16.2426Z" fill="#4B3F4E"/>
<path d="M17.8348 27.6456C18.4471 28.0353 19.193 28.2663 19.9999 28.2663C20.8069 28.2663 21.5527 28.0353 22.1651 27.6456C21.8936 26.7053 21.0247 26.0117 19.9999 26.0117C18.9752 26.0117 18.1063 26.7053 17.8348 27.6456Z" fill="#E6646E"/>
<path d="M16.6181 20.7514C15.9955 20.7514 15.4908 20.2467 15.4908 19.6241V19.2484C15.4908 18.6258 15.9955 18.1211 16.6181 18.1211C17.2407 18.1211 17.7453 18.6258 17.7453 19.2484V19.6241C17.7453 20.2467 17.2406 20.7514 16.6181 20.7514Z" fill="#4B3F4E"/>
<path d="M16.6182 18.1211V19.4362C16.6182 19.7475 16.8705 19.9998 17.1818 19.9998C17.4931 19.9998 17.7454 19.7475 17.7454 19.4362V19.2483C17.7454 18.6258 17.2407 18.1211 16.6182 18.1211Z" fill="#5D5360"/>
<path d="M16.6179 19.2489C16.8255 19.2489 16.9938 19.0806 16.9938 18.873C16.9938 18.6654 16.8255 18.4971 16.6179 18.4971C16.4103 18.4971 16.2419 18.6654 16.2419 18.873C16.2419 19.0806 16.4103 19.2489 16.6179 19.2489Z" fill="white"/>
<path d="M23.3816 20.7514C22.7591 20.7514 22.2544 20.2467 22.2544 19.6241V19.2484C22.2544 18.6258 22.7591 18.1211 23.3816 18.1211C24.0042 18.1211 24.5089 18.6258 24.5089 19.2484V19.6241C24.5089 20.2467 24.0042 20.7514 23.3816 20.7514Z" fill="#4B3F4E"/>
<path d="M23.3817 18.1211V19.4362C23.3817 19.7475 23.634 19.9998 23.9453 19.9998C24.2566 19.9998 24.509 19.7475 24.509 19.4362V19.2483C24.509 18.6258 24.0043 18.1211 23.3817 18.1211Z" fill="#5D5360"/>
<path d="M23.3814 19.2489C23.5891 19.2489 23.7574 19.0806 23.7574 18.873C23.7574 18.6654 23.5891 18.4971 23.3814 18.4971C23.1738 18.4971 23.0055 18.6654 23.0055 18.873C23.0055 19.0806 23.1738 19.2489 23.3814 19.2489Z" fill="white"/>
<path d="M19.0914 23.3202C19.1419 23.3454 19.1956 23.3573 19.2484 23.3573C19.3774 23.3573 19.5015 23.2861 19.5631 23.1629C19.65 22.9893 19.5796 22.7781 19.4059 22.6913L18.6544 22.3155C18.4807 22.2287 18.2695 22.2991 18.1827 22.4727C18.0959 22.6464 18.1663 22.8576 18.3399 22.9444L19.0914 23.3202Z" fill="black"/>
<path d="M20.7519 23.3573C20.8047 23.3573 20.8584 23.3454 20.9089 23.3201L21.6604 22.9444C21.834 22.8576 21.9044 22.6464 21.8176 22.4727C21.7309 22.2991 21.5197 22.2287 21.3459 22.3155L20.5944 22.6913C20.4208 22.7781 20.3504 22.9892 20.4372 23.1629C20.4988 23.2861 20.623 23.3573 20.7519 23.3573Z" fill="black"/>
<path d="M32 18.4972C32 16.6458 30.4938 15.1396 28.6424 15.1396C28.3327 15.1396 28.0282 15.182 27.7337 15.2647C27.5027 14.6402 27.1948 14.0428 26.8137 13.4844C25.9464 12.2138 24.755 11.2187 23.3577 10.595V9.47903C23.3577 9.36236 23.2998 9.25333 23.2032 9.18794C23.1066 9.12259 22.9839 9.10928 22.8755 9.15264L21.3707 9.75456L21.0926 8.64227C21.0688 8.5473 21.0065 8.46648 20.9207 8.41937C20.8348 8.37227 20.7332 8.36303 20.6404 8.39402C19.7697 8.68427 18.9144 9.25989 18.0969 10.1057C16.3379 10.5224 14.7434 11.5238 13.5975 12.934C13.0275 13.6355 12.5809 14.4254 12.2703 15.2656C11.9746 15.1822 11.6688 15.1396 11.3577 15.1396C9.50623 15.1396 8 16.6458 8 18.4972C8 20.0345 9.0522 21.3635 10.5061 21.7443C10.3392 22.3378 10.2545 22.9478 10.2545 23.5699C10.2545 25.7347 11.2774 27.7657 13.1346 29.2886C14.9715 30.7949 17.4097 31.6245 20 31.6245C22.5903 31.6245 25.0284 30.7949 26.8654 29.2886C28.7226 27.7657 29.7455 25.7348 29.7455 23.5699C29.7455 22.9478 29.6608 22.338 29.4939 21.7446C30.9478 21.3638 32 20.0345 32 18.4972ZM8.70312 18.4972C8.70312 17.0335 9.89389 15.8427 11.3576 15.8427C11.5952 15.8427 11.8287 15.8739 12.0546 15.9352C11.8593 16.6435 11.7575 17.3791 11.7575 18.1214C11.7575 18.7923 11.5668 19.4762 11.2057 20.0992C11.0206 20.4185 10.8631 20.7449 10.7317 21.0769C9.55784 20.793 8.70312 19.7295 8.70312 18.4972ZM20 30.9213C15.014 30.9213 10.9577 27.6235 10.9577 23.5699C10.9577 22.4814 11.2458 21.4323 11.8141 20.4517C12.2371 19.7218 12.4607 18.916 12.4607 18.1214C12.4607 16.3975 13.0582 14.7126 14.1432 13.3774C15.2125 12.0615 16.7082 11.1347 18.3547 10.7678C18.4232 10.7526 18.4856 10.7172 18.5337 10.6662C19.1785 9.98444 19.8407 9.49216 20.507 9.19872L20.7863 10.3159C20.8109 10.4144 20.8769 10.4974 20.9673 10.5436C21.0577 10.5899 21.1637 10.5947 21.2579 10.557L22.6545 9.99836V10.8267C22.6545 10.9691 22.7404 11.0974 22.872 11.1517C25.7073 12.3215 27.5394 15.0572 27.5394 18.1215C27.5394 18.9161 27.763 19.7219 28.186 20.4518C28.7542 21.4323 29.0424 22.4815 29.0424 23.5699C29.0423 27.6235 24.986 30.9213 20 30.9213ZM29.2683 21.077C29.1369 20.7449 28.9794 20.4186 28.7943 20.0992C28.4332 19.4763 28.2425 18.7924 28.2425 18.1215C28.2425 17.375 28.1427 16.6408 27.9487 15.9343C28.1736 15.8736 28.406 15.8427 28.6424 15.8427C30.1061 15.8427 31.2969 17.0335 31.2969 18.4972C31.2969 19.7295 30.4422 20.793 29.2683 21.077Z" fill="black"/>
<path d="M16.6182 18.4727C16.8124 18.4727 16.9698 18.3153 16.9698 18.1211C16.9698 17.9269 16.8124 17.7695 16.6182 17.7695C15.8028 17.7695 15.1394 18.4329 15.1394 19.2484V19.6241C15.1394 20.4395 15.8028 21.1029 16.6182 21.1029C17.4337 21.1029 18.0971 20.4395 18.0971 19.6241V19.2484C18.0971 19.0542 17.9397 18.8968 17.7455 18.8968C17.5513 18.8968 17.394 19.0542 17.394 19.2484V19.6241C17.394 20.0518 17.046 20.3998 16.6182 20.3998C16.1905 20.3998 15.8425 20.0518 15.8425 19.6241V19.2484C15.8426 18.8206 16.1905 18.4727 16.6182 18.4727Z" fill="black"/>
<path d="M24.8604 19.6241V19.2484C24.8604 19.0542 24.703 18.8968 24.5088 18.8968C24.3146 18.8968 24.1573 19.0542 24.1573 19.2484V19.6241C24.1573 20.0518 23.8093 20.3998 23.3816 20.3998C22.9538 20.3998 22.6058 20.0518 22.6058 19.6241V19.2484C22.6058 18.8206 22.9538 18.4727 23.3816 18.4727C23.5758 18.4727 23.7331 18.3153 23.7331 18.1211C23.7331 17.9269 23.5758 17.7695 23.3816 17.7695C22.5661 17.7695 21.9027 18.4329 21.9027 19.2484V19.6241C21.9027 20.4395 22.5661 21.1029 23.3816 21.1029C24.197 21.1029 24.8604 20.4395 24.8604 19.6241Z" fill="black"/>
<path d="M20.0001 28.6181C22.2659 28.6181 24.1092 26.9433 24.1092 24.8848C24.1092 24.6906 23.9518 24.5332 23.7576 24.5332H16.2426C16.0484 24.5332 15.891 24.6906 15.891 24.8848C15.891 26.9433 17.7343 28.6181 20.0001 28.6181ZM20.0001 27.1635C19.8059 27.1635 19.6485 27.3209 19.6485 27.5151V27.8985C19.1464 27.8524 18.6764 27.7088 18.2627 27.4895C18.5664 26.8096 19.2444 26.3636 20.0001 26.3636C20.7591 26.3636 21.4342 26.8088 21.7376 27.4895C21.3238 27.7088 20.8539 27.8525 20.3517 27.8985V27.5151C20.3517 27.3209 20.1943 27.1635 20.0001 27.1635ZM23.3833 25.2363C23.2882 25.9655 22.9003 26.6161 22.328 27.0938C21.8909 26.223 20.9984 25.6605 20.0001 25.6605C19.0061 25.6605 18.1104 26.2243 17.6725 27.094C17.1 26.6164 16.7121 25.9657 16.6169 25.2363H23.3833Z" fill="black"/>
<path d="M26.6921 19.0223C26.5924 18.3877 26.3221 17.7837 25.9102 17.2759C25.7879 17.1251 25.5665 17.1019 25.4156 17.2243C25.2649 17.3466 25.2417 17.568 25.364 17.7188C25.698 18.1305 25.917 18.619 25.9975 19.1314C26.1371 20.0209 25.9008 20.885 25.332 21.5645C24.7809 22.223 24.6548 23.1285 25.0031 23.9277C25.19 24.3565 25.2848 24.8051 25.2848 25.2608C25.2848 27.5533 22.9141 29.4184 20 29.4184C17.086 29.4184 14.7153 27.5533 14.7153 25.2608C14.7153 24.8051 14.81 24.3565 14.997 23.9277C15.3453 23.1286 15.2193 22.223 14.6681 21.5645C14.0992 20.8849 13.8629 20.0207 14.0026 19.1312C14.2026 17.8582 15.2318 16.8307 16.5054 16.6324C17.4294 16.4886 18.3499 16.7625 19.0311 17.3838C19.5746 17.8794 20.4258 17.8793 20.969 17.3838C21.6503 16.7624 22.571 16.4886 23.495 16.6324C23.7912 16.6786 24.0791 16.7704 24.3506 16.9054C24.5243 16.9918 24.7354 16.9209 24.8219 16.7471C24.9083 16.5732 24.8374 16.3622 24.6636 16.2758C24.3274 16.1086 23.9707 15.9949 23.6033 15.9377C22.4674 15.7608 21.3348 16.0986 20.4952 16.8643C20.2176 17.1175 19.7826 17.1175 19.505 16.8643C18.6656 16.0987 17.5329 15.7607 16.3973 15.9376C14.8252 16.1823 13.5549 17.4507 13.3081 19.0221C13.1364 20.1151 13.4279 21.1783 14.129 22.0158C14.508 22.4686 14.5936 23.0935 14.3525 23.6467C14.1267 24.1647 14.0122 24.7078 14.0122 25.2608C14.0122 27.941 16.6984 30.1215 20.0001 30.1215C23.3019 30.1215 25.988 27.941 25.988 25.2608C25.988 24.7078 25.8736 24.1647 25.6478 23.6467C25.4066 23.0934 25.4923 22.4685 25.8713 22.0158C26.5721 21.1783 26.8637 20.1152 26.6921 19.0223Z" fill="black"/>
</svg>
