<svg width="40" height="40" viewBox="0 0 40 40" fill="none" xmlns="http://www.w3.org/2000/svg">
<circle cx="20" cy="20" r="20" fill="#FFEFF1"/>
<g clip-path="url(#clip0_92_4027)">
<path d="M31.6246 8.88599C31.6246 8.88599 31.25 15.4247 26.75 16.5497L23.375 12.7997C24.5 11.2997 27.6966 8.37181 31.6246 8.88599Z" fill="#FF96A0"/>
<path d="M27.4824 16.3032L25.1273 14.7466L24.8502 14.4386C25.5501 12.8022 27.6093 9.67374 30.9753 8.83496C31.1897 8.84307 31.4057 8.85741 31.6248 8.88605C31.6248 8.88605 31.2903 14.6947 27.4824 16.3032Z" fill="#E6646E"/>
<path d="M8.37537 8.88599C8.37537 8.88599 8.74999 15.4247 13.25 16.5497L16.625 12.7997C15.5 11.2997 12.3035 8.37181 8.37537 8.88599Z" fill="#FF96A0"/>
<path d="M12.5178 16.3032L14.8729 14.7466L15.15 14.4386C14.4501 12.8022 12.3909 9.67374 9.02491 8.83496C8.81051 8.84307 8.59451 8.85741 8.37537 8.88605C8.37537 8.88605 8.70987 14.6947 12.5178 16.3032Z" fill="#E6646E"/>
<path d="M29.375 22.9248C29.375 27.4812 25.1777 31.1748 20 31.1748C14.8223 31.1748 10.625 27.4812 10.625 22.9248C10.625 17.6748 14.8223 11.6748 20 11.6748C25.1777 11.6748 29.375 17.6748 29.375 22.9248Z" fill="#FFAAB4"/>
<path d="M16.7878 26.7162C17.1914 28.0016 18.3013 28.9248 19.6073 28.9248H20.3932C21.7132 28.9248 22.8329 27.9817 23.2254 26.6748L16.7878 26.7162Z" fill="#DC4655"/>
<path d="M24.215 25.2899C24.215 27.696 21.2666 26.9353 20.0033 26.9353C18.7664 26.9353 15.7935 27.696 15.7935 25.2899C15.7935 22.8324 17.6762 21.1074 20.0018 21.1074C22.3274 21.1074 24.215 22.8324 24.215 25.2899Z" fill="#E6646E"/>
<path d="M13.875 23.0594C13.875 18.5994 16.426 13.6435 20.0035 11.6749L20 11.6748C14.8223 11.6748 10.625 17.6748 10.625 22.9248C10.625 27.2244 14.3631 30.7541 19.1351 31.1385C16.0205 29.6769 13.875 26.6088 13.875 23.0594Z" fill="#FF96A0"/>
<path d="M19.1176 24.9287C19.3614 24.4763 19.2602 23.9484 18.8914 23.7496C18.5226 23.5509 18.026 23.7566 17.7822 24.2091C17.5384 24.6615 17.6396 25.1894 18.0084 25.3881C18.3772 25.5869 18.8738 25.3812 19.1176 24.9287Z" fill="#A5465A"/>
<path d="M20.8828 24.9286C21.1267 25.381 21.6233 25.5867 21.992 25.388C22.3608 25.1893 22.4621 24.6614 22.2182 24.2089C21.9744 23.7564 21.4778 23.5507 21.109 23.7495C20.7403 23.9482 20.639 24.4761 20.8828 24.9286Z" fill="#A5465A"/>
<path d="M15.875 20.6748C15.2537 20.6748 14.75 20.1711 14.75 19.5498V19.1748C14.75 18.5535 15.2537 18.0498 15.875 18.0498C16.4963 18.0498 17 18.5535 17 19.1748V19.5498C17 20.1711 16.4963 20.6748 15.875 20.6748Z" fill="#4B3F4E"/>
<path d="M15.875 18.0498V19.3623C15.875 19.6729 16.1269 19.9248 16.4375 19.9248C16.7481 19.9248 17 19.6729 17 19.3623V19.1748C17 18.5535 16.4963 18.0498 15.875 18.0498Z" fill="#5D5360"/>
<path d="M15.875 19.1748C16.0821 19.1748 16.25 19.0069 16.25 18.7998C16.25 18.5927 16.0821 18.4248 15.875 18.4248C15.6679 18.4248 15.5 18.5927 15.5 18.7998C15.5 19.0069 15.6679 19.1748 15.875 19.1748Z" fill="white"/>
<path d="M24.125 20.6748C23.5037 20.6748 23 20.1711 23 19.5498V19.1748C23 18.5535 23.5037 18.0498 24.125 18.0498C24.7463 18.0498 25.25 18.5535 25.25 19.1748V19.5498C25.25 20.1711 24.7463 20.6748 24.125 20.6748Z" fill="#4B3F4E"/>
<path d="M24.125 18.0498V19.3623C24.125 19.6729 24.3769 19.9248 24.6875 19.9248C24.9981 19.9248 25.25 19.6729 25.25 19.3623V19.1748C25.25 18.5535 24.7463 18.0498 24.125 18.0498Z" fill="#5D5360"/>
<path d="M24.125 19.1748C24.3321 19.1748 24.5 19.0069 24.5 18.7998C24.5 18.5927 24.3321 18.4248 24.125 18.4248C23.9179 18.4248 23.75 18.5927 23.75 18.7998C23.75 19.0069 23.9179 19.1748 24.125 19.1748Z" fill="white"/>
<path d="M19.0551 23.4474C18.7856 23.3021 18.456 23.2913 18.1512 23.4175C17.8667 23.5354 17.6239 23.7601 17.4674 24.0504C17.311 24.3407 17.2568 24.6671 17.3148 24.9695C17.377 25.2937 17.5672 25.5629 17.8368 25.7081C17.9841 25.7875 18.1441 25.8251 18.3059 25.8251C18.737 25.8251 19.1803 25.5583 19.4245 25.1051C19.581 24.8148 19.6352 24.4884 19.5772 24.186C19.515 23.8619 19.3247 23.5927 19.0551 23.4474ZM18.8055 24.7716C18.6562 25.0488 18.3653 25.1943 18.1703 25.0892C18.0571 25.0282 18.0184 24.905 18.0053 24.8371C17.9781 24.6952 18.0077 24.5301 18.0864 24.384C18.1651 24.2379 18.2867 24.1224 18.4202 24.0672C18.4581 24.0515 18.5172 24.0327 18.5826 24.0327C18.6276 24.0327 18.6755 24.0415 18.7215 24.0664C18.8348 24.1274 18.8736 24.2506 18.8866 24.3186C18.9139 24.4603 18.8843 24.6255 18.8055 24.7716Z" fill="black"/>
<path d="M20.9445 23.447C20.405 23.7377 20.2393 24.4814 20.5752 25.1047C20.5752 25.1047 20.5752 25.1047 20.5752 25.1048C20.8195 25.558 21.2627 25.8247 21.6939 25.8247C21.8556 25.8247 22.0158 25.7871 22.1629 25.7078C22.4325 25.5625 22.6228 25.2932 22.685 24.9691C22.743 24.6667 22.6888 24.3403 22.5323 24.05C22.1964 23.4267 21.4842 23.1562 20.9445 23.447ZM21.9945 24.8366C21.9814 24.9046 21.9427 25.0278 21.8294 25.0888C21.6347 25.1939 21.3437 25.0484 21.1942 24.7711V24.7711C21.0448 24.4939 21.0833 24.171 21.2781 24.0659C21.4732 23.961 21.764 24.1063 21.9134 24.3835C21.9921 24.5297 22.0217 24.6948 21.9945 24.8366Z" fill="black"/>
<path d="M31.3803 12.3117C31.9422 10.5497 31.9979 8.93983 31.9999 8.87219C32.0055 8.69158 31.8733 8.53619 31.6942 8.51275C29.9273 8.28157 28.1055 8.71272 26.2795 9.79437C24.9428 10.5863 23.9244 11.5432 23.3688 12.1242C22.277 11.5797 21.1461 11.3041 20 11.3041C18.854 11.3041 17.7231 11.5797 16.6313 12.1241C16.0757 11.543 15.0574 10.5862 13.7208 9.79437C11.8947 8.71268 10.0731 8.28152 8.30601 8.51275C8.1269 8.53619 7.99467 8.69163 8.00029 8.87219C8.00236 8.93983 8.05795 10.5497 8.61989 12.3117C9.32559 14.5247 10.5252 15.9743 12.1033 16.5335C10.9293 18.5174 10.2543 20.8104 10.2543 22.9286C10.2543 25.2392 11.2738 27.4089 13.125 29.038C14.9636 30.6559 17.4052 31.5469 19.9999 31.5469C22.5947 31.5469 25.0362 30.6559 26.8748 29.038C28.726 27.4089 29.7455 25.2392 29.7455 22.9286C29.7455 20.8105 29.0705 18.5174 27.8966 16.5336C29.4749 15.9745 30.6746 14.5248 31.3803 12.3117ZM15.9929 12.4763C15.6343 12.6929 15.2858 12.9359 14.9484 13.205C14.3417 11.8384 13.3628 10.7163 12.0319 9.86707C11.835 9.74149 11.6387 9.62735 11.4443 9.52315C13.5423 10.2059 15.2017 11.6747 15.9929 12.4763ZM8.73431 9.28685C10.0092 9.5538 13.096 10.5146 14.3893 13.6843C13.929 14.1069 13.4918 14.5798 13.081 15.102C12.8733 15.366 12.6758 15.6396 12.4883 15.9207C9.50381 15.0072 8.86378 10.6838 8.73431 9.28685ZM19.9999 30.8438C15.0139 30.8438 10.9574 27.293 10.9574 22.9286C10.9574 20.4299 11.9579 17.6666 13.6336 15.5368C14.4883 14.4506 15.4589 13.5911 16.5185 12.9821C17.6442 12.3352 18.8155 12.0072 20 12.0072C21.1844 12.0072 22.3557 12.3352 23.4814 12.9821C24.541 13.591 25.5117 14.4505 26.3663 15.5368C28.042 17.6666 29.0425 20.4299 29.0425 22.9286C29.0424 27.293 24.986 30.8438 19.9999 30.8438ZM27.5116 15.9208C27.3241 15.6397 27.1265 15.366 26.9188 15.102C26.5082 14.5801 26.0713 14.1073 25.6112 13.685C25.7098 13.4438 25.821 13.2083 25.9444 12.9838C26.0379 12.8136 25.9758 12.5999 25.8056 12.5063C25.6356 12.4129 25.4218 12.475 25.3282 12.6451C25.2287 12.8262 25.1368 13.0138 25.0517 13.2052C24.7143 12.9362 24.3658 12.6931 24.0071 12.4764C24.7997 11.6734 26.4637 10.201 28.5667 9.51972C27.783 9.93597 26.9673 10.5161 26.2564 11.3239C26.1281 11.4696 26.1423 11.6918 26.2881 11.82C26.3549 11.8788 26.4377 11.9077 26.5202 11.9077C26.6177 11.9077 26.7147 11.8673 26.7842 11.7884C28.2695 10.1006 30.2633 9.49366 31.266 9.28615C31.1366 10.6827 30.4967 15.0074 27.5116 15.9208Z" fill="black"/>
<path d="M23.2309 22.0279C22.3844 21.2082 21.2376 20.7568 20.0016 20.7568C17.3971 20.7568 15.4331 22.7097 15.4331 25.2994C15.4331 25.9526 15.6304 26.4649 16.0197 26.8222C16.1567 26.9479 16.3118 27.0479 16.4795 27.128C16.967 28.4266 18.212 29.2931 19.606 29.2931H20.3936C21.7895 29.2931 23.0267 28.4329 23.5168 27.1379C23.6884 27.0568 23.8476 26.9545 23.9888 26.8248C24.3777 26.4677 24.5749 25.9544 24.5749 25.2994C24.5749 24.029 24.0976 22.8671 23.2309 22.0279ZM20.3936 28.59H19.606C18.6934 28.59 17.8615 28.1198 17.3844 27.3748C18.0136 27.453 18.6914 27.3951 19.2551 27.3467C19.5369 27.3225 19.803 27.2997 20.0031 27.2997C20.2093 27.2997 20.4799 27.3228 20.7663 27.3472C21.1485 27.3798 21.5638 27.4152 21.9761 27.4152C22.1905 27.4152 22.4039 27.4051 22.6116 27.3806C22.1349 28.1228 21.3075 28.59 20.3936 28.59ZM23.5133 26.3069C22.9464 26.8274 21.7208 26.7229 20.8261 26.6466C20.5244 26.6209 20.2392 26.5965 20.0031 26.5965C19.7729 26.5965 19.4922 26.6206 19.1949 26.6462C18.2968 26.7232 17.0668 26.8288 16.4952 26.3042C16.2537 26.0825 16.1362 25.7538 16.1362 25.2994C16.1362 24.2207 16.5368 23.2381 17.264 22.5328C17.9774 21.841 18.9496 21.4599 20.0016 21.4599C21.054 21.4599 22.0272 21.841 22.7418 22.533C23.4705 23.2386 23.8718 24.221 23.8718 25.2994C23.8718 25.7558 23.7545 26.0854 23.5133 26.3069Z" fill="black"/>
<path d="M17.3453 19.5471V19.1713C17.3453 18.9771 17.1879 18.8197 16.9937 18.8197C16.7995 18.8197 16.6422 18.9771 16.6422 19.1713V19.5471C16.6422 19.9748 16.2942 20.3228 15.8664 20.3228C15.4387 20.3228 15.0907 19.9748 15.0907 19.5471V19.1713C15.0907 18.7435 15.4387 18.3955 15.8664 18.3955C16.0606 18.3955 16.218 18.2381 16.218 18.0439C16.218 17.8498 16.0606 17.6924 15.8664 17.6924C15.051 17.6924 14.3876 18.3558 14.3876 19.1713V19.5471C14.3876 20.3625 15.0509 21.0259 15.8664 21.0259C16.6819 21.0259 17.3453 20.3625 17.3453 19.5471Z" fill="black"/>
<path d="M25.2605 18.8197C25.0663 18.8197 24.9089 18.9771 24.9089 19.1713V19.5471C24.9089 19.9748 24.5609 20.3228 24.1332 20.3228C23.7054 20.3228 23.3574 19.9748 23.3574 19.5471V19.1713C23.3574 18.7435 23.7054 18.3955 24.1332 18.3955C24.3274 18.3955 24.4847 18.2381 24.4847 18.0439C24.4847 17.8498 24.3274 17.6924 24.1332 17.6924C23.3177 17.6924 22.6543 18.3558 22.6543 19.1713V19.5471C22.6543 20.3625 23.3177 21.0259 24.1332 21.0259C24.9486 21.0259 25.612 20.3625 25.612 19.5471V19.1713C25.612 18.9771 25.4547 18.8197 25.2605 18.8197Z" fill="black"/>
</g>
<defs>
<clipPath id="clip0_92_4027">
<rect width="24" height="24" fill="white" transform="translate(8 8)"/>
</clipPath>
</defs>
</svg>
