<svg width="40" height="40" viewBox="0 0 40 40" fill="none" xmlns="http://www.w3.org/2000/svg">
<circle cx="20" cy="20" r="20" fill="#FFEFE8"/>
<g clip-path="url(#clip0_92_4057)">
<path d="M16.846 13.0949C16.846 13.0949 15.5223 10.365 12.0505 9.34375C12.0505 9.34375 8.10165 15.3355 13.0439 18.2967" fill="#DD6938"/>
<path d="M13.0441 18.2966L13.3277 17.909L14.7552 15.956L14.7096 15.77C14.7096 14.5079 14.0461 12.9039 13.3823 11.6139C12.7166 10.3209 12.0506 9.34375 12.0506 9.34375C12.0506 9.34375 8.10204 15.3355 13.0441 18.2966Z" fill="#F9F6F9"/>
<path d="M12.6482 17.0122C12.8854 17.4763 13.1123 17.7629 13.3276 17.9094L14.755 15.9564L14.7095 15.7704C14.7095 14.5083 14.046 12.9042 13.3821 11.6143C12.5163 12.5523 11.3389 14.4516 12.6482 17.0122Z" fill="#DFDDE2"/>
<path d="M23.2402 13.0949C23.2402 13.0949 24.5639 10.365 28.0358 9.34375C28.0358 9.34375 31.9846 15.3355 27.0423 18.2967" fill="#DD6938"/>
<path d="M27.0423 18.2966L26.7587 17.909L25.3312 15.956L25.3767 15.77C25.3767 14.5079 26.0402 12.9039 26.7041 11.6139C27.3697 10.3209 28.0357 9.34375 28.0357 9.34375C28.0357 9.34375 31.9843 15.3355 27.0423 18.2966Z" fill="#F9F6F9"/>
<path d="M27.438 17.0122C27.2008 17.4763 26.9739 17.7629 26.7587 17.9094L25.3312 15.9564L25.3767 15.7704C25.3767 14.5083 26.0402 12.9042 26.7041 11.6143C27.5699 12.5523 28.7473 14.4516 27.438 17.0122Z" fill="#DFDDE2"/>
<path d="M30.6778 24.3843C30.6778 25.1801 30.5296 25.9411 30.2593 26.6415C29.3531 28.9899 27.0739 30.6558 24.4063 30.6558H15.5939C12.9259 30.6558 10.6472 28.9899 9.74092 26.6415C9.47064 25.9411 9.32239 25.1801 9.32239 24.3843C9.32239 21.9298 10.7322 19.8049 12.7867 18.7749V17.9529C12.7867 14.8681 15.2875 12.3672 18.3724 12.3672H21.6274C24.7127 12.3672 27.2136 14.8681 27.2136 17.9529V18.7749C29.2675 19.8049 30.6778 21.9298 30.6778 24.3843Z" fill="#E4936B"/>
<path d="M16.2605 17.9531C16.2605 18.4327 16.1033 18.8969 15.8225 19.2856C15.0005 20.4236 14.465 22.2831 14.465 24.384C14.465 27.8481 15.9205 30.656 17.7159 30.656H15.6586C12.1975 30.656 9.34084 27.8795 9.32224 24.4185C9.30896 21.9496 10.7227 19.8097 12.7868 18.7749V17.9531C12.7868 14.8682 15.2873 12.3672 18.3728 12.3672H19.1563C17.557 12.3672 16.2605 14.8682 16.2605 17.9531Z" fill="#DD6938"/>
<path d="M30.2595 26.6421C29.3532 28.9905 27.0741 30.6564 24.4065 30.6564H15.5941C12.9261 30.6564 10.6473 28.9905 9.74109 26.6421C10.53 24.5963 12.3606 23.0683 14.5826 22.7082C14.9117 22.6549 15.2499 22.627 15.5941 22.627H24.4065C27.0745 22.627 29.3537 24.2933 30.2595 26.6421Z" fill="#F9F6F9"/>
<path d="M22.3178 22.5036C22.3178 21.6495 21.2802 20.957 20.0004 20.957C18.7205 20.957 17.683 21.6495 17.683 22.5036C17.683 23.3578 18.7205 24.7286 20.0004 24.7286C21.2802 24.7286 22.3178 23.3578 22.3178 22.5036Z" fill="#665E66"/>
<path d="M20.0005 24.7289C18.7205 24.7289 17.683 23.358 17.683 22.504C17.683 21.6495 18.7205 20.957 20.0005 20.957C19.3859 20.957 18.888 21.6495 18.888 22.504C18.888 23.358 19.3859 24.7289 20.0005 24.7289Z" fill="#454045"/>
<path d="M17.716 30.6562H15.5941C12.9261 30.6562 10.6473 28.9903 9.74109 26.642C10.53 24.5961 12.3606 23.0681 14.5826 22.708C14.5056 23.2417 14.4648 23.8038 14.4648 24.3843C14.4648 27.8486 15.9207 30.6562 17.716 30.6562Z" fill="#DFDDE2"/>
<path d="M12.7754 14.2309C12.8391 14.3063 12.9301 14.3452 13.0217 14.3452C13.0951 14.3452 13.169 14.3202 13.2295 14.2691C13.3655 14.1542 13.3826 13.9509 13.2677 13.8149L12.5207 12.9307C12.4058 12.7948 12.2025 12.7776 12.0666 12.8925C11.9306 13.0073 11.9135 13.2107 12.0284 13.3466L12.7754 14.2309Z" fill="black"/>
<path d="M12.7248 14.7952C12.7669 14.6222 12.6609 14.4479 12.4879 14.4058L11.8904 14.2602C11.7175 14.2182 11.5431 14.3241 11.5009 14.497C11.4588 14.67 11.5648 14.8443 11.7378 14.8865L12.3353 15.032C12.361 15.0383 12.3866 15.0413 12.4119 15.0413C12.557 15.0413 12.6889 14.9425 12.7248 14.7952Z" fill="black"/>
<path d="M27.3109 14.2309L28.0579 13.3467C28.1728 13.2107 28.1556 13.0074 28.0197 12.8925C27.8837 12.7777 27.6804 12.7947 27.5655 12.9307L26.8185 13.8149C26.7037 13.9509 26.7208 14.1542 26.8568 14.2691C26.9173 14.3202 26.9911 14.3452 27.0646 14.3452C27.1561 14.3452 27.2472 14.3064 27.3109 14.2309Z" fill="black"/>
<path d="M27.3614 14.7952C27.3973 14.9425 27.5291 15.0413 27.6743 15.0413C27.6995 15.0413 27.7252 15.0383 27.7508 15.0321L28.3484 14.8865C28.5213 14.8444 28.6273 14.67 28.5852 14.4971C28.5431 14.3242 28.3691 14.2181 28.1958 14.2602L27.5982 14.4058C27.4253 14.448 27.3193 14.6223 27.3614 14.7952Z" fill="black"/>
<path d="M29.9886 20.8751C29.3808 19.9105 28.5356 19.1207 27.5357 18.5808V18.3649C28.7208 17.5614 29.4599 16.503 29.7332 15.2161C30.3495 12.3139 28.3886 9.29454 28.3048 9.16739C28.2268 9.04905 28.0806 8.99559 27.9447 9.0356C25.3975 9.78505 23.9561 11.4388 23.3515 12.3009C22.802 12.1345 22.2227 12.0459 21.6277 12.0459H18.3727C17.7995 12.0459 17.2453 12.1283 16.7208 12.2812C16.1169 11.4267 14.6754 9.78101 12.1417 9.0356C12.0056 8.99564 11.8596 9.04909 11.7816 9.16743C11.7413 9.22849 10.7913 10.6846 10.399 12.5443C9.88016 15.0049 10.5945 16.9927 12.4643 18.3055V18.5809C11.4646 19.1208 10.6195 19.9106 10.0116 20.8751C9.34978 21.925 9 23.139 9 24.3858C9 28.0216 11.9582 30.9796 15.5942 30.9796H24.4062C28.042 30.9796 31 28.0216 31 24.3858C31 23.1389 30.6503 21.925 29.9886 20.8751ZM27.26 9.96294C26.7595 10.7867 26.0042 12.1375 25.5198 13.5043C25.06 13.1011 24.5406 12.773 23.9801 12.5307C24.5045 11.8211 25.552 10.6832 27.26 9.96294ZM16.0875 12.5059C15.5249 12.7427 15.0066 13.0644 14.5483 13.4545C14.0631 12.1048 13.32 10.7765 12.8257 9.96277C14.5174 10.6766 15.5618 11.8018 16.0875 12.5059ZM11.0263 12.6935C11.2696 11.5278 11.7616 10.5097 12.0637 9.95856C12.5415 10.7188 13.5132 12.3643 14.036 13.9461C13.1556 14.8979 12.5836 16.1389 12.481 17.5089C11.089 16.3559 10.5994 14.739 11.0263 12.6935ZM24.4062 30.335H15.5942C13.1118 30.335 10.9799 28.8067 10.0893 26.6417C10.4568 25.7469 11.0422 24.9482 11.7892 24.3262C11.926 24.2123 11.9445 24.0091 11.8306 23.8723C11.7167 23.7355 11.5135 23.717 11.3767 23.8309C10.7344 24.3657 10.1998 25.0185 9.80204 25.7476C9.69917 25.3101 9.64456 24.8542 9.64456 24.3858C9.64456 23.2608 9.96 22.1656 10.5568 21.2187C11.1378 20.297 11.9587 19.5521 12.931 19.0645C13.04 19.0098 13.1088 18.8983 13.1088 18.7764V17.9544C13.1088 15.0518 15.4702 12.6905 18.3727 12.6905H21.6277C23.6184 12.6905 25.4167 13.7934 26.3208 15.5688C26.4016 15.7274 26.5958 15.7905 26.7543 15.7097C26.9129 15.629 26.9759 15.4349 26.8952 15.2763C26.6581 14.8108 26.3656 14.387 26.029 14.0101C26.5461 12.4092 27.5386 10.728 28.0228 9.95774C28.1966 10.2741 28.433 10.7445 28.649 11.3105C29.0167 12.2742 29.3939 13.7108 29.1027 15.0823C28.8932 16.0693 28.3628 16.9054 27.5236 17.5746C27.4993 17.1916 27.4381 16.8126 27.3408 16.4438C27.2954 16.2718 27.1193 16.1691 26.9469 16.2145C26.7748 16.2599 26.6721 16.4362 26.7175 16.6083C26.8328 17.0451 26.8912 17.498 26.8912 17.9545V18.7765C26.8912 18.8984 26.96 19.0099 27.0691 19.0646C28.0414 19.5521 28.8624 20.297 29.4434 21.2188C30.0401 22.1657 30.3555 23.2608 30.3555 24.3859C30.3555 24.854 30.301 25.3096 30.1983 25.7468C29.7118 24.8525 29.025 24.082 28.1784 23.4905C27.0689 22.7153 25.7646 22.3056 24.4065 22.3056H22.6255C22.4888 21.355 21.385 20.6365 20.0003 20.6365C18.6155 20.6365 17.5117 21.355 17.375 22.3056H15.5942C14.4812 22.3056 13.3813 22.588 12.4134 23.1222C12.2576 23.2082 12.201 23.4043 12.287 23.5601C12.3458 23.6666 12.4559 23.7267 12.5695 23.7267C12.6221 23.7267 12.6756 23.7138 12.7249 23.6865C13.5977 23.2048 14.5898 22.9502 15.5942 22.9502H17.4253C17.5358 23.3569 17.7835 23.7908 18.126 24.158C18.5718 24.6358 19.1051 24.9351 19.656 25.024C19.5137 25.9751 18.6915 26.7069 17.7014 26.7069C17.5234 26.7069 17.3791 26.8512 17.3791 27.0292C17.3791 27.2071 17.5234 27.3514 17.7014 27.3514C18.6911 27.3514 19.5543 26.7999 20.0003 25.9881C20.4462 26.7999 21.3094 27.3514 22.2991 27.3514C22.4772 27.3514 22.6214 27.2071 22.6214 27.0292C22.6214 26.8512 22.4772 26.7069 22.2991 26.7069C21.3091 26.7069 20.4868 25.9751 20.3445 25.024C20.8954 24.9351 21.4287 24.6358 21.8745 24.158C22.2171 23.7908 22.4647 23.3568 22.5753 22.9501H24.4064C25.6318 22.9501 26.8084 23.3197 27.8091 24.0188C28.7529 24.6782 29.4769 25.5833 29.9108 26.6415C29.0204 28.8065 26.8886 30.335 24.4062 30.335ZM20.0003 24.4079C18.9376 24.4079 18.0051 23.2221 18.0051 22.5053C18.0051 21.8416 18.9188 21.281 20.0003 21.281C21.0817 21.281 21.9954 21.8416 21.9954 22.5053C21.9954 23.2221 21.0629 24.4079 20.0003 24.4079Z" fill="black"/>
<path d="M14.838 20.6116C15.4672 20.6116 15.979 19.8462 15.979 18.9054C15.979 17.9646 15.4672 17.1992 14.838 17.1992C14.2088 17.1992 13.6969 17.9646 13.6969 18.9054C13.6969 19.8462 14.2088 20.6116 14.838 20.6116Z" fill="black"/>
<path d="M25.1623 20.6116C25.7915 20.6116 26.3034 19.8462 26.3034 18.9054C26.3034 17.9646 25.7915 17.1992 25.1623 17.1992C24.5331 17.1992 24.0212 17.9646 24.0212 18.9054C24.0212 19.8462 24.5331 20.6116 25.1623 20.6116Z" fill="black"/>
</g>
<defs>
<clipPath id="clip0_92_4057">
<rect width="22" height="22" fill="white" transform="translate(9 9)"/>
</clipPath>
</defs>
</svg>
